<?xml version="1.0" encoding="UTF-8"?>
<svg version="1.1" viewBox="0 0 900 900" width="225" height="225" xmlns="http://www.w3.org/2000/svg">
<path transform="translate(565,276)" d="m0 0h30l13 2 9 4 18 10 10 9 13 13 7 11 7 15 7 21 5 22 3 22 1 10v55l-2 15-8 32-7 21-10 22-12 19-6 11-12 23-9 14-10 15-20 26-7 8-13 15-29 29-8 7-12 11-14 12-20 18-16 8-13 4-6 1h-18l-15-3-16-7-26-14-19-12-14-10-13-10-10-9-8-7-18-18-9-11-9-10-13-17-13-18-11-18-10-15-20-39-12-25-7-19-9-30-4-16-5-35-1-14 2-29 4-20 7-19 10-19 7-10 7-8 13-13 14-8 20-9 23-5 7-1h36l17 4 27 10 29 14 11 7 10 7 10 3h11l10-3 23-15 15-9 27-12 15-5 19-5zm-178 46v98l1 32 2 13 3 2 8-7 9-7 12-3 23-2h11l11 3 5 6 9 13h2l-1-15-1-43-1-88-5 2-14 9-16 6-5 1h-9l-14-4-19-10zm-185 169 6 21 7 20 11 27 2 4 2 1h22l26 1h45l10-4-2-4-9-10-10-14-6-12-1-4v-16l1-8-1-1-55-1zm376 9-3 1-4 5-1 8 6 9 1 5-2 6 4 10 3 7 2 9 1 1h31l26-1 3-3 8-18 11-32 1-7zm-44 2-29 1-1 2 11 17 8 12 5-1 13-8 14-7 4-11 2-5zm24 26-9 5-6 7-4 6-3 12 1 5h21l12-1 2-1-3-12-4-6-4-1 1-14zm-76 71-47 14-19 5-16 2h-6l-1 1-2 128 4 4 21 10 15 4 6 1h12l17-4 17-8 5-4v-62l-1-58-1-32z" fill="#11498A"/>
<path transform="translate(563,292)" d="m0 0h26l15 3 13 5 10 6 11 6 9 8 7 11 6 15 11 33 4 31v37l-2 13-4 20-5 18v2l-87 1 1-5 8-13 6-10 10-13 1-2h2l2-4 8-11 7-6 5-5 4-5 5-4h2v-2h2l2-4 2-3-5 1-9 5-5 3-5 5-3 1-2 5-5 2-2 5-9 9-15 20-10 15-8 11-1 2h-2v2l-3 2-55 2 4 7 2 5-1 3 8 15 7 11 2 3v5l-7 3-11 3h-3v2l-26 7-15 3-4-4-1-4-5-4-3-6-4-5-7-13-6-7-5-8-5-6-1-3-3-3v-2h-2l-2-7-4-3 2 9 3 7 6 7 6 12 6 5 8 14-1 5-8 1-17-1-16-3-2-2 1-5 3-4 3-18-19 1-4-1v-2l-3-1v-7l2-8v-8h-14l-9 3-1 4 1 1h15v8l-1 10 2 1 16 1v2l4 1v19l-1 8 24 4h31l1 3h2l2 4-1 5-8 3-26 8-12 4-7-1-3-1-3-4v-2h-2l-2-4-10-3-5-5-4-6v-6l-7-1-7-8-7-9-6-1 1 3 4 2 6 7v3l6 2 7 6 7 10v2l5 2 8 7 7 8 2 4 1 12-2 8-6-1-5-6-4-6-14-12-6-5-6-8-6-5-1-3-4-4-5-6-12-8-3-6-2-2-4-1v-2l-3-1-1-3-3-1-1 2-5-9 1-3 2 4 2-12 5-1 12 6 7 7v-7l-9-3-8-6-6-7-1-4 2-7 6-7 12-5 6-4h2v-3l-7 4-2-1 5-4 6-3 11-2 26-1 7-1 3-4 4 6 5-3 7-7 6-4 12-3 23-2h11l11 3 6 7 8 11v2h2l-2-15-1-43v-87l9-5 11-7 14-8 8-3 17-6 14-3z" fill="#E64C2B"/>
<path transform="translate(288,283)" d="m0 0h36l17 4 27 10 29 14 11 7 10 7 10 3h11l10-3 23-15h2v2l5 2 2 1v4l2 2-2 1 2 1v2l-7 1-10 7-12 6-14 4h-9l-14-4-19-10-10-6v97l1 41-4 4-7 1-26 1-13 3-8 5 6-3h2v3l-10 6-10 4-6 7-1 7 3 6 9 8 10 3 2 2v8l-7-6-8-5-5-2h-4l-2 13-3-3v-2h-2l-1-4v-16l1-8-55-1h-47l8 26 10 27 4 10 2 13 1 4v7l-5 1v-2l-4-1-17-34-7-18-8-26-6-21-5-31-2-23 2-29 4-20 7-19 10-19 7-10 7-8 13-13 14-8 20-9 23-5z" fill="#10498A"/>
<path transform="translate(571,184)" d="m0 0h61l16 2 22 5 16 8 17 10 14 10 13 12 8 8 10 14 11 21 10 26 10 31 4 17 3 25 1 12v31l-2 21-3 17-8 39-6 25-10 35-13 35-12 27-14 27-10 16-11 18-13 19-6 8-14 19-11 13-11 12-7 8-43 43-8 7-11 10-20 15-20 13-48 28-15 8-16 5-10 2h-24l-19-5-15-6-16-10-23-16-17-12-16-13-10-9-13-12-18-18-11-9-17-14-17-17-7-9-5-5-8-9-8-10-13-16-10-14-14-19-10-14-8-13-13-23-14-28-15-36-8-24-8-30-6-36-2-18v-52l5-39 6-26 9-27 8-18 9-17 13-18 4-5h2l2-4 10-9 15-10 19-10 22-8 21-5 17-2 16-1h20l19 1 26 4 36 8 20 5 12 5 15 5 10 2h32l13-4 4-3 10-2 27-12 26-8 34-6zm14 15-16 2-20 6-32 10-31 9-30 10-12 3h-17l-12-3-25-8-43-12-33-9-13-2-18-1h-23l-23 2-20 4-23 7-15 8-16 12-10 9-11 12-11 14-8 14-8 20-5 15-5 23-5 35-2 25v14l4 26 7 27 9 39 7 31 8 27 10 25 12 22 12 20 8 12 12 17 13 18 14 19 14 15 9 11 7 7 7 8 10 9 13 12 11 9 11 10 8 7 22 18 16 12 17 12 26 16 16 9 15 6 18 4h17l17-4 12-5 16-8 17-10 23-15 14-10 13-11 10-8 13-12 17-16 22-22 9-11 13-15 10-13 9-11 8-12 11-17 8-14 8-13 15-30 7-15 14-34 13-37 8-28 6-26 4-27 1-21v-20l-1-23-5-32-7-25-7-19-9-20-13-23-12-16-14-15-15-12-15-7-23-6-26-3-16-1z" fill="#124A8A"/>
<path transform="translate(329,555)" d="m0 0 4 1 9 9 1 3 5 3 3 5 11 11 7 8 10 10 8 7 12 6 11 1v1l-16 1-2 122-2 4-7-3-6-5-7-4-22-16-12-10-5-5-8-9-7-6-5-6-5-5-5-6v-2l-4-2-3-4v-2h-2l-4-6-4-4v-3l-4-2-7-10-6-8v-2h-2l-6-11-5-10-10-16-6-10-5-14-1-2 20-1 26 1h45l8-3h2z" fill="#E64C2B"/>
<path transform="translate(349,469)" d="m0 0 30 1 9 2 5 3 3 2v2h2l2 8 4 4 5 2 4 6 3 7 2 6 6 7 6 12 6 5 8 14-1 5-8 1-17-1-16-3-2-2 1-5 3-4 3-18-19 1-4-1v-2l-3-1v-7l2-8v-8h-14l-9 3-1 4 1 1h15v8l-1 10 2 1 16 1v2l4 1v19l-1 8 24 4h31l1 3h2l2 4-1 5-8 3-26 8-12 4-7-1-3-1-3-4v-2h-2l-2-4-10-3-5-5-4-6v-6l-7-1-7-8-7-9-6-1 1 3 4 2 6 7v3l6 2 7 6 7 10v2l5 2 8 7 7 8 2 4 1 12-2 8-6-1-5-6-4-6-14-12-6-5-6-8-6-5-1-3-4-4-5-6-12-8-3-6-2-2-4-1v-2l-3-1-1-3-3-1-1 2-5-9 1-3 2 4 2-12 5-1 12 6 7 7v-7l-9-3-12-12-1-2v-8l9-8 5-3 7-1 4-4h2l1-4z" fill="#DEA376"/>
<path transform="translate(563,292)" d="m0 0h26l15 3 13 5 10 6 11 6 9 8 7 11 6 15 11 33 4 31v37l-2 13-4 20-5 18v2l-87 1 1-5 8-13 6-10 10-13 1-2h2l2-4 8-11 7-6 5-5 4-5 5-4h2v-2h2l2-4 2-3-5 1-9 5-5 3-5 5-3 1-2 5-5 2-2 5-9 9-15 20-10 15-8 11-1 2h-2v2l-3 2-26 1h-27v-1l18-2 20-1 10-2 5-4h2l2-5 4-7 12-20 5-10 8-11 6-8 8-6 3-1 2-4 7-6 16-6 10-3 5-2h4v-2l3-2h5l1-12-2-10-5-16-5-13-6-12-2-2v-3h-2l-4-8v-2l-5-2-5-6-4-5-7-4-8-3-3-2-15-1-10-2v-1l-11-1-20 2-17 4-20 8-6 3-2-1 10-6 8-3 17-6 14-3z" fill="#D15442"/>
<path transform="translate(444,453)" d="m0 0h12l10 3 3 3 3 11 6 9 10 11 3 5v2l4 1 3 5 3 7 5 5 9 17 5 5 7 11v5l-7 3-11 3h-3v2l-26 7-15 3-4-4-4-10v-2l14-7 7-8 3-10v-6l-1-1-22-2-3-2v-7l2-8v-7l-1-4-5-1-11-3-16-2-11-6-8-4-3-4 1-6 5-5 7-3 10-3 17-2z" fill="#DDA376"/>
<path transform="translate(565,276)" d="m0 0h30l13 2 9 4 18 10 10 9 13 13 7 11 7 15 7 21 5 22 3 22 1 10v55l-2 15-4 15-2-1-1-5-4-2h2l-2-2-5 3-3-1-2 2 2-12 2-8 4-18 1-9v-37l-4-31-12-36-6-14-8-11-11-8-6-3-14-8-12-4-12-2h-26l-21 3-18 6-7 3-12 6-15 9-7 4-3-2 1-2-2-2h2v-3l-5-2-2-1 1-4 16-9 28-12 24-7 14-3z" fill="#38435C"/>
<path transform="translate(412,495)" d="m0 0 5 3 2 3v5h2l1 4 3 1 3 6 6 7 5 8 6 8 6 11 4 5 3 5 3 2 2 5 4 2 32-8 7-1v-2l14-4 6-3-1-5-7-12-5-8-4-8 1-4 5 5 4 9 6 8 5 8v3l3 1 2 3v4h-2l-2 6-3-3-6 1-27 8-29 7-6 2h-7v2l-42 12-2 3-2 10v8l9-2 29-8 21-5 13-4h12l-1 2-26 9-9 4-31 9-8 2h-17l-13-7-16-15-8-8-7-8-7-7-1-3-5-3-3-5-7-7-5-2-9-11-6-8v-4l4 1 1 3 2 1v2l5 1 4 5v3l4 2 10 7 5 6v2l3 1 1 3 8 7 7 9 11 9 8 7 5 8 7 3 1-10-1-10-5-8-9-9-7-4-9-13-5-4-6-3-3-6-7-6-2-4 7 1 7 8 7 9 7 2 2 8 5 5 2 3 10 3 2 5h2l3 4v2l10 1 28-9 17-5 1-5-1-4h-2l-1-2h-31l-22-4-2-1v-27l-3-1v-2h-16l-3-2 1-10 1-8-3 1h-12l-2-2 1-4 6-3 10-1 8 1 1 2-1 9-1 5v7l2 1v2l3-1 1 1h19l1 4-1 2-2 12-4 6 1 4 16 3 21 1 4-1-1-6-8-13-5-4-7-14-6-6-4-12z" fill="#5C4859"/>
<path transform="translate(657,415)" d="m0 0 5 5 3 8 3 13 1 9v7l-3 12-3 8-7 14-5 3-6 5-11 1h-50l2-1v-5l5-9 4-7h2l2-5 4-4 5-6h2v-2h2l2-4h2l1-3 5-5 14-16 3-4h2l2-4 3-3h3l2-4z" fill="#E64C2B"/>
<path transform="translate(445,447)" d="m0 0h11l11 3 6 7 3 4 2 7 4 7 6 8 1 4h2l9 14 4 6v2l-4-2-6-9-3-1-6-9-9-10-6-10-2-9-2-2-10-3h-12l-9 2-13 2-13 4-3 3h-2l-1 8 3 4 18 9 21 3 11 4 2 4v7l-2 8v7l2 1 22 2 2 2-1 10-4 9-5 5-12 7h-3l2 3-1 4-3-3-3-6-4-5-7-13-6-7-5-8-5-6-1-3-3-3v-2h-2l-2-7-4-3-2 2-3-5-7-3-3-5v-6h-2l-3-3-5-3-9-2-30-1-8 4-1 3-6 5-9 2-9 7-2 2v8l7 8 2 3-4-2-7-8-1-4 2-7 6-7 12-5 6-4h2v-3l-7 4-2-1 5-4 6-3 11-2 26-1 7-1 3-4 4 6 5-3 7-7 6-4 12-3z" fill="#824D55"/>
<path transform="translate(225,557)" d="m0 0 3 4v2l5 2 5 12 6 11 10 17 5 9 3 6 3 5v2h2l7 10 8 11 2 1 3 5 5 6v2h2l5 7 5 5 5 6v2l4 2v2l3 1 5 6 6 5 7 9 13 10 10 8 9 6 8 6 7 4 3 3 7 3 2 4 3 3-1 2-3-1-5 1-5-3h-3l1 2 3 2-5-1-15-9-10-7-14-10-10-9-11-9-21-21-9-11-9-10-13-17-13-18-11-18-10-15-12-23 3-1v2h2l1-2 1-4v-5l-2-6z" fill="#39435D"/>
<path transform="translate(329,555)" d="m0 0 4 1 9 9 1 3 5 3 3 5 11 11 7 8 10 10 8 7 12 6 11 1v1l-16 1-2 122-2 4-7-3-6-5-7-4-22-16-12-10-5-5-8-9-7-6-5-6-5-5-5-6v-2l-4-2-3-4v-2h-2l-4-6-4-4v-3l-4-2-7-10-6-8v-2h-2l-6-11-5-10-10-16-6-10-5-14-1-2 20-1 26 1h45l8-3h2zm-84 11v14l2 5 4 8 3 1 1 5 6 7 4 6 6 5 7 12 8 12 8 11 2 4h2v2h2l2 4 15 16 8 9 5 5 4 5 5 5 10 11 5 6 5 4h2v2l12 8h2v-2l4-2 5-6 1-9 1-49 2-28-3-10v-9h-2l1-4-3-2-1-3-7-5-3-5h-2v-2l-5-4h-2l-1-3-4-4-1-4-8-7-3-4-15-4h-10l-13-1z" fill="#B95751"/>
<path transform="translate(524,558)" d="m0 0 5 1 2 6v9l-4 4-10 5-27 9-13 3-26 7-21 5-20 6-4-1v-8l3-12 4-3 23-6 14-4h3v-2l10-2 16-4 30-8z" fill="#DEA376"/>
<path transform="translate(596,71)" d="m0 0h15l6 9 6 10 8 11 1-2 1-28h14l1 1v59l-4 1-11-1-6-8-9-14-5-8-2-1v31h-15z" fill="#090C54"/>
<path transform="translate(312,512)" d="m0 0 7 1 9 5 7 7v-7l-9-3v-1h9l2 3 1 10 3 5 11 1 5 6 7 9v2l10 3 2 9 2 4-4-2-2-4v-6l-7-1-7-8-7-9-6-1 1 3 4 2 6 7v3l6 2 7 6 7 10v2l5 2 8 7 7 8 2 4 1 12-2 8-6-1-5-6-4-6-14-12-6-5-6-8-6-5-1-3-4-4-5-6-12-8-3-6-2-2-4-1v-2l-3-1-1-3-3-1-1 2-5-9 1-3 2 4 2-12z" fill="#DCA175"/>
<path transform="translate(565,276)" d="m0 0h30l13 2 9 4 18 10 7 6 1 10-5 1-6-3-4-4-18-6-10-3-1-2-9-1-1-1-12-1-10 2-2-1-9 1h-3l-14 3-2-1v2l-6 2-4 1-2 2-10 2-7 4-2-1v2l-2 1-1 4-7 3-1 3-12 7-3-2 1-2-2-2h2v-3l-5-2-2-1 1-4 16-9 28-12 24-7 14-3z" fill="#2F3F65"/>
<path transform="translate(779,71)" d="m0 0h18l8 4 8 9 3 7 1 5v9l-2 9-6 9-6 5-7 3-11 1-9-2-8-5-6-9-3-7v-14l3-10 9-10zm6 11-7 6-2 5-1 12 2 8 5 5 3 2h6l5-3 2-4 1-6v-16l-3-5-5-4z" fill="#0E1157"/>
<path transform="translate(471,71)" d="m0 0h47l1 1v10l-1 1h-29v12l27 1v11l-28 1v11l30 1 1 1v10l-7 1-42-1v-59z" fill="#15185D"/>
<path transform="translate(334,71)" d="m0 0h11l10 3 5 5 6 8 2 7v15l-3 8-9 10-8 4h-18l-8-4-8-9-3-7v-20l4-8 4-5 7-5zm4 11-5 2-4 4-2 7v13l3 7 6 5h6l6-4 3-9v-16l-4-6-7-3z" fill="#0B0E54"/>
<path transform="translate(252,71)" d="m0 0h47l1 1-1 11h-29v13h27l1 1v9l-1 1h-27v13h30v11h-48z" fill="#050315"/>
<path transform="translate(549,71)" d="m0 0h18l9 6 7 7 1 4-11 1-3 3-5-1-5-7h-6l-6 5-1 4v16l2 10h11l3-3 2-8 6 1 5 2 6 1-1 6-4 6-6 5-5 2h-17l-10-5-7-8-4-11v-14l6-12 8-7z" fill="#070953"/>
<path transform="translate(205,71)" d="m0 0h18l11 8 6 7-1 2-10 1-2 2h-6l-4-7-5-1-5 3-3 3-1 3v20l2 6 2 1h8l4-4 2-7 6 1 4 2 7 2-3 9-8 7-5 2h-18l-8-4-8-9-4-11v-12l3-8 6-9 5-4z" fill="#0E1059"/>
<path transform="translate(714,71)" d="m0 0h14l9 2 8 7 5 7v1l-11 1-2 2h-6l-6-8-7 1-4 5-2 6v12l4 12 8 1 4-2 4-10 5 2 10 1 1 5-4 6-9 8-13 2-11-2-8-6-6-8-2-6v-20l4-7 6-7z" fill="#090B55"/>
<path transform="translate(312,531)" d="m0 0 4 1 1 3 2 1v2l5 1 4 5v3l4 2 10 7 5 6v2l3 1 1 3 8 7 7 9 11 9 8 7 5 8 7 3 1-10-1-10-5-8-9-9-7-4-9-13-5-4-6-3-3-6-7-6-2-4 7 1 7 8 7 9 7 2 2 8 5 5 2 3 5 2 6 5 6 8 2 1v2l5 1-1 10v15l20-4 35-9 16-5 13-3 3 1-10 4-22 8-8 3-27 8-8 2h-17l-13-7-16-15-8-8-7-8-7-7-1-3-5-3-3-5-7-7-5-2-9-11-6-8z" fill="#09071A"/>
<path transform="translate(406,481)" d="m0 0 5 1 7 5 6 3 7 5 16 2 3 2v6l-2 10v6l10 2 15 1 2 2-1 9-3 5-7 6-7 4-5-1-4-5-6-11-5-5-6-10-6-4-1-3-3-3-3-10-5-5-4-2z" fill="#DEA476"/>
<path transform="translate(405,71)" d="m0 0h54l1 1v10l-17 1-1 48h-19l1-49h-18z" fill="#161B5E"/>
<path transform="translate(111,72)" d="m0 0 5 1v43l25 1v14l-36 1-6-1-1-2 1-46 2-6z" fill="#0D0F54"/>
<path transform="translate(156,423)" d="m0 0h10l2 8-7 8-8 8-7 8-1 1 20-2 6-1 2 9-5 2-33 7h-4l-2-9v-6l17-17 2-4-19 3-4-1-1-9 20-4z" fill="#1C508A"/>
<path transform="translate(187,525)" d="m0 0h4l2 7-1 5-13 20-3 6 20-7 6-1 2 5v3l-30 13-9 3-4-9v-6l13-21h-2l-13 4h-6l-3-5v-5l17-5z" fill="#1A4F8A"/>
<path transform="translate(647,407)" d="m0 0h4v5l-5 6-5 5-4 5h-2l-2 4-6 8h-2v2h-2l-2 4-5 5-8 9-11 14-6 8-9 18-5 1 1-5 8-13 6-10 10-13 1-2h2l2-4 8-11 7-6 5-5 4-5 5-4h2v-2h2l2-4 2-3-5 1-9 5-5 3-5 5-3 1-2 5-5 2-2 5-9 9-15 20-10 15-8 11-1 2h-2v2l-3 2-26 1h-27v-1l5-1 34-1 13-1 4-4 11-18 5-7 8-16 7-11 9-11 9-6 5-5 5-4 21-9z" fill="#B95751"/>
<path transform="translate(563,292)" d="m0 0h26l15 3 13 5 10 6 11 6 9 8 7 11 6 15 11 33 4 31v37l-2 13-4 20-5 18v2h-13l3-2 4-1 1-3 3-3 3-8 6-36v-29l-3-34-2-5-2-9-4-8-10-21-6-10-5-9-5-6v-2l-14-7-8-3-7-4-15-1-10-2v-1l-11-1-20 2-17 4-20 8-6 3-2-1 10-6 8-3 17-6 14-3z" fill="#B85550"/>
<path transform="translate(329,555)" d="m0 0 4 1 9 9 1 3 5 3 3 5 11 11 7 8 10 10 8 7 12 6 11 1v1l-16 1-1 63h-1l-1-58-2 43-1 62-3 1-2 4-3 2-7-4 2-1v-2l7-6 1-2 1-9 1-49 2-28-3-10v-7l1-2h-2l1-4-4-2v-3l-6-2-4-6v-2h-2v-2l-4-2-8-7-1-6-4-2-7-8-15-4h-10l-13-1h-60v13l2 5 2 3-1 4-7-10-4-10v-5l1-1h-6l-1-2 20-1 26 1h45l8-3h2z" fill="#D05442"/>
<path transform="translate(528,222)" d="m0 0h8l6 3 4 6-1 9-4 6 2 4 5 5v2l5 2 3 1-1 3h-14l-8-7-4-3-7-2 2 10v6l-8 3-3-1-5-37-1-6 1-2zm-6 8-3 2 1 9 3 3 7-1 5-5-1-5-4-3z" fill="#174E8C"/>
<path transform="translate(640,413)" d="m0 0 4 1-2 4-2 3h-2v2l-7 5-6 7h-2l-2 4-6 5-10 14h-2l-2 5-9 11-5 9-9 15-1 3h-2l-2 4-3 9-3-3-2-1v2l-5-1-1 2-1-6 3-7h2v-2h2l2-5 11-15 7-11 12-15 7-8 6-8 5-2 2-5 6-4 4-4 10-6z" fill="#3A435C"/>
<path transform="translate(255,676)" d="m0 0h7l8 4 7 6 6 10 1 4v8l-4 8-8 7-5 2h-10l-9-5-7-8-4-8-1-5v-7l6-9 5-4zm2 11-8 5-5 9 3 7 5 6 4 2 7-1 6-4 5-6 1-9-3-5-5-4z" fill="#1F405E"/>
<path transform="translate(197,261)" d="m0 0h11l6 3 6 7 3 7v9l-7 11-13 11-5 1-12-14-10-14v-2l-3-1v-3l13-10 7-4zm-1 8-7 3-2 2 1 6 7 10 7 8 4-1 7-8-1-9-4-6-5-4z" fill="#244766"/>
<path transform="translate(154,71)" d="m0 0h17l1 1v59h-18z" fill="#0C0E43"/>
<path transform="translate(119,328)" d="m0 0 7 1 10 9 16 14 1-23 1-1h6l2 1v38l-6 1-5-2-11-9-11-10-2-1-1 21-1 1h-6l-1-1v-20z" fill="#284660"/>
<path transform="translate(162,477)" d="m0 0h7l6 4 3 4 4 12 1 7-3 9-5 4-11 4-18 4-4-9 1-3 17-4 11-4 3-1 1-8-5-6-4-1-24 6-5-1-2-6v-4l16-4z" fill="#21476A"/>
<path transform="translate(227,636)" d="m0 0h12l9 8 5 9 3 9-1 4-4 3h-2l-3-13-5-8-4-4-3 1v8l5 13 1 8-5 6-5 1h-6l-8-6-7-8-5-10 1-5 4-4h3l5 16 5 6 5 1-1-8-5-14v-8z" fill="#264869"/>
<path transform="translate(665,71)" d="m0 0 16 1v59l-4 1-13-1v-59z" fill="#0A0E58"/>
<path transform="translate(264,77)" d="m0 0 5 2 6 2h24v2h-29v13h27l1 1v9l-1 1h-27v13l-1 4-6 3h-6l-1-1v-41l2-7z" fill="#161A5F"/>
<path transform="translate(155,376)" d="m0 0 7 1 2 22v10l-23 3-18 1-2-6-1-9v-20h7l1 5 1 16 7 1v-20l6-2 2 5v16l10-1v-21z" fill="#1E4261"/>
<path transform="translate(225,557)" d="m0 0 3 4 1 4h2l4 11 2 6 1 4h-2l1 1-2 4 3 5v2h2l6 13 3 3 2 7 5 4 1 4 5 2 1 3h2l2 4 3 2 5 5 3 4 3 10v3h3l1 5-4 5-10-12-13-18-13-20-11-17-14-26 3-1v2h2l1-2 1-4v-5l-2-6z" fill="#304166"/>
<path transform="translate(214,594)" d="m0 0 5 1 10 18 4 6-1 4-21 12-12 7h-3l-6-10-9-17 1-4 2-2h4l9 18h6l-1-6-6-12 1-5h5l4 6 4 9v2l6-3 3-3-3-9-4-7 1-4z" fill="#2A4A67"/>
<path transform="translate(624,227)" d="m0 0 11 1 10 4 2 2v8l-4-1-6-5-6-2h-6l-1 3 3 5 11 7 4 5-1 8-7 8-6 1-16-4-6-3-2-3v-8h4l7 5 9 3h3l-1-5-11-9-3-5 1-8 2-4z" fill="#265A94"/>
<path transform="translate(445,447)" d="m0 0h11l11 3 6 7 3 4 2 7 4 7 6 8 1 4h2l9 14 4 6v2l-4-2-6-9-3-1-6-9-9-10-6-10-2-9-2-2-10-3h-12l-9 2-13 2-15 4-4 2-2 4v6l4 4 1 6 2 7-6-2-3-6-2-6-6-5v-2l4-1 4-8 9-8 14-4z" fill="#B45551"/>
<path transform="translate(412,495)" d="m0 0 5 3 2 3v5h2l1 4 3 1 3 6 6 7 5 8 6 8 6 11 4 5 3 5 3 2 2 5 4 2 32-8 7-1v-2l14-4 6-3-1-5-7-12-5-8-4-8 1-4 5 5 4 9 6 8 5 8v3l3 1 2 3v4h-2l-2 6-3-3-6 1-27 8-29 7-6 2-14 2-20 5-4-1 8-3 20-6 7-3v-5l-6-8-3-3-6-12-6-9-8-11-6-9-6-5-4-10z" fill="#0B091B"/>
<path transform="translate(377,240)" d="m0 0 6 1 5 4v27l-1 16-2 1-7-3v-6l-2-4-13-5-5 3-1 1h-9l-1-2 6-8 16-17zm-2 15-7 8 4 4 5 1 1-1 1-12z" fill="#264562"/>
<path transform="translate(246,231)" d="m0 0 5 2v5l-15 5-4 1 2 7 6-1 11-4h3l1 7-7 3-9 3 2 9 9-1 7-2h5l1 4-5 3-18 7-6 1-3-5-6-18-5-14v-3l16-6z" fill="#134985"/>
<path transform="translate(316,228)" d="m0 0h12l10 3 6 6v9h-4l-9-8-8-1-5 3h-2l-2 4-2 5v9l4 6 7 3h9v6l-4 3-12-2-8-4-6-7-3-9 2-12 6-9 6-4z" fill="#1B4D86"/>
<path transform="translate(495,778)" d="m0 0 7 2 5 4 2 7v4l8 6 4 7v9l-6 8-5 3-10 1-6-3-4-5-3-6-1-11-6-8v-8l6-7zm-2 6-6 5v6l4 4h6l4-5v-6l-5-4zm9 17-5 3-3 4 1 9 5 6h7l7-6 1-7-4-7-3-2z" fill="#35445D"/>
<path transform="translate(563,218)" d="m0 0h10l18 2 2 4-2 4-19-2v8l14 1 4 4v4h-19v8l17 5 2 4-1 1-23-1-7-2v-11l3-28z" fill="#1D528E"/>
<path transform="translate(187,87)" d="m0 0 5 1-2 7-1 4v7l2 9 6 2v-2h2l-2-6 1-10 2-3 4 20 3 3h8l4-4 2-7 6 1 4 2 7 2-3 9-8 7-5 2h-18l-8-4-8-9-4-11v-12z" fill="#0B0C3F"/>
<path transform="translate(350,74)" d="m0 0 9 3 7 10 2 7v15l-3 8-9 10-8 4h-18l-8-4v-3l3-1v-25l1-5h1l1 15 3 7 5 4h6l8-4 4 1 3-5h2l-2-10 5-10-1-4-4-6-7-6z" fill="#0A0B40"/>
<path transform="translate(428,792)" d="m0 0 9 3 5 4 3 6v9l-5 12-6 8-8 6-4 1h-8l-9-3-3-2v-5l4-1 9 4h8l6-4 3-5h-10l-7-4-3-4-1-8 3-9 5-5 3-2zm-1 6-7 4-2 3v8l4 6 2 1h8l5-5 2-4-1-7-5-5z" fill="#2B5381"/>
<path transform="translate(427,258)" d="m0 0 12 1 8 4 3 3-1 7-4-2-5-3-8-1-6 2-4 5-2 10 2 7 2 4 7 2h6l3-2h4l-1 7-7 2h-9l-10-3-6-7-2-6v-11l4-10 5-5 5-3z" fill="#254867"/>
<path transform="translate(483,240)" d="m0 0 5 1 1 4-7 3-9 3-1 5 1 2 7-1 7-2h4l1 6-3 2-13 2 1 11 14-3h7l1 5-8 3-17 5-4-1-9-30-1-7 6-3z" fill="#24476B"/>
<path transform="translate(679,433)" d="m0 0h6l1 4h-2l2 6-1 8-2 13 1 2h-2v7l-1 3 1 2 3-1 2-3-1 11-4 15-2-1-1-5-4-2h2l-2-2-5 3-3-1-2 2 2-12 2-8 4-18 1-1 2-21z" fill="#2E3D62"/>
<path transform="translate(401,556)" d="m0 0 14 1 7 1h30l6 8v5l-5 3-19 6-9 3 16-4 12-2v2l-42 12-2 3-2 10v8l9-2 29-8 21-5 13-4 4 1-3 2-19 5-9 3-41 10h-7l-1-4v-11l2-10-5-1v-2l-3-1-8-10-3-3 5 1 2 5h2l3 4v2l10 1 28-9 17-5 1-5-1-4h-2l-1-2h-31l-18-3z" fill="#B15551"/>
<path transform="translate(466,791)" d="m0 0h5l1 3-4 4-12 5v5l1 3 8-2 2-1h7l8 5 5 7 1 3v11l-5 6-10 5h-7l-1-2 3-3 8-3 5-4 1-7-3-6-6-5-8 1-7 4-4-1-5-8-2-5v-5l4-3z" fill="#355674"/>
<path transform="translate(298,719)" d="m0 0 6 1 10 9 2 4-1 4-4-1-8-7h-5l-6 5-11 11 2 5 2 3-1 5-4-1-8-9-5-7 12-11h2l1-3 8-7z" fill="#234664"/>
<path transform="translate(603,710)" d="m0 0 4 1 13 11 6 3-2 4-6 4-19-2 7 8 2 2v5l-4 2-8-7-11-10v-3l6-5h17v-2l-8-6 1-4z" fill="#455E81"/>
<path transform="translate(147,443)" d="m0 0 7 2-4 6-5 5 20-2 6-1 2 9-5 2-33 7h-4l-2-11 9-6 6-7z" fill="#1F538F"/>
<path transform="translate(732,108)" d="m0 0 5 2 10 1 1 5-4 6-9 8-13 2-11-2-8-6-3-3v-2h2v2l8 1 3-7 3 2v2l8 1 4-2z" fill="#0B0B40"/>
<path transform="translate(387,460)" d="m0 0 3 2 2 4 6-3-2 6-5 1v2l4 2 4 4 3 10 6 3-4-9-1-5-3-3v-6l5-5 4-2-3 4h-2l-1 8 5 7-1 3 3 8 6 3 4 6v6h-1l-2-7-4-3-2 2-3-5-7-3-3-5v-6h-2l-3-3-5-3-9-2-30-1-8 4-1 3-6 5-9 2-9 7-2 2v8l7 8 2 3-4-2-7-8-1-4 2-7 6-7 12-5 6-4h2v-3l-7 4-2-1 5-4 6-3 11-2 26-1 7-1z" fill="#564557"/>
<path transform="translate(577,287)" d="m0 0 12 1 1 1 9 1 1 3 10 2 18 6 4 3v2l11 3-1 3 6 8-4-2-11-8-6-3-14-8-12-4-12-2h-26l-21 3-18 6-7 3-22 11 1-3 7-3 1-4h2v-2l4-1 8-4 7-1 4-3 8-1v-2l10-2h6l1-2 4 1 8-1 4 1z" fill="#37435B"/>
<path transform="translate(718,322)" d="m0 0 3 3v7l-5 5-1 6 11 1 1 5-8 3-14 3h-7l-3-14v-8l6-4 4 1 7 1zm-16 15-2 4 1 6h5l2-3-2-7z" fill="#3C5776"/>
<path transform="translate(252,71)" d="m0 0h47l1 1-1 9-24 1-6-2-5-2-6 1-1 6v41h7l5-2v-4l2 1 2 5-2 2h-15l-1-1-1-55z" fill="#0A1048"/>
<path transform="translate(699,553)" d="m0 0h6l8 5 3 4v11l-3 10-2 3-7-1-18-7-2-3 4-12 6-7zm0 8-5 3-2 3v5l10 4 6 1 3-3 1-6-2-4-5-3z" fill="#20283E"/>
<path transform="translate(652,652)" d="m0 0 10 2 6 5 1 3v8l-3 6-6 7-5 2h-6l-9-6-3-5v-6l5-9 6-5zm-3 7-5 6v7l4 4 3 1h8l5-7-1-5-6-5z" fill="#606A7D"/>
<path transform="translate(718,475)" d="m0 0 8 1 6 5 2 3v12l-3 6-6 5h-10l-7-4-3-4-1-3v-8l4-8 5-4zm-4 8-4 4-1 4 2 5 5 4h8l4-4 1-7-3-5-2-1z" fill="#3B5F87"/>
<path transform="translate(717,408)" d="m0 0h10l6 4 3 4 1 8-2 10-6 5-4 1h-7l-6-3-4-6-1-3v-9l3-6 5-4zm1 7-5 5-1 2v6l3 3 3 1h9l5-5v-6l-3-5-3-1z" fill="#455670"/>
<path transform="translate(178,494)" d="m0 0 1 3 1 7v9l-5 4-11 4-18 4-4-9 1-3 17-4 11-4 3-1 1-3h1z" fill="#214463"/>
<path transform="translate(809,81)" d="m0 0 5 5 3 10v9l-2 9-6 9-6 5-7 3-11 1-9-2-2-1 2-4h2l-2-9-2-4 1-7h1l2 8 5 5 7 2v4l11-1 1-2 5-5 4-8 2-8v-10h-2l-2-5z" fill="#17184A"/>
<path transform="translate(689,276)" d="m0 0h9l5 4 8 16-1 4-9 4-9 3h-7l-4-8-2-8 1-8 6-6zm2 6-6 5-1 2v6l2 4 4 1 13-4 2-4-5-8-3-2z" fill="#525F75"/>
<path transform="translate(677,597)" d="m0 0 3 1-1 7-3 8 5-3 5-8 4 1-1 5-3 6 1 3 5-1 5-9 4-1 1 2-6 16-2 3-7-1-19-8-1-4 9-16z" fill="#2E4B6D"/>
<path transform="translate(728,372)" d="m0 0 4 1-1 5-2 4v12l6 4v4l-11-1-16-5-3-3v-7l5-3 11-7zm-9 14-6 2 2 3 8 1v-5z" fill="#3D5A7D"/>
<path transform="translate(714,71)" d="m0 0h14l9 2 8 7 5 7v1l-11 1-2 2h-6l-6-8-7 1-4 5-3-1 1-5 1-6 1-3h10v-2h-10z" fill="#101247"/>
<path transform="translate(570,741)" d="m0 0h5l9 4 14 6 1 4-3 2h-8l-7 4-1 5v5l-2 2h-3l-5-12-4-13 1-4zm5 9 2 7h4l3-2-1-3-5-2z" fill="#19324F"/>
<path transform="translate(412,495)" d="m0 0 5 3 2 3v5h2l1 4 3 1 3 6 6 7 5 8 6 8 6 11 4 5 3 5 3 2 2 5 4 2 8-1-2 2-23 7-24 6-4-1 8-3 20-6 7-3v-5l-6-8-3-3-6-12-6-9-8-11-6-9-6-5-4-10z" fill="#050315"/>
<path transform="translate(119,328)" d="m0 0 7 1 7 6-1 2-2-2v2l2 1v4l2-3 2 3v6h2l2 6 2 4-8-6-7-6-1 21-1 1h-6l-1-1v-20z" fill="#2D4E6D"/>
<path transform="translate(183,268)" d="m0 0 2 1-2 3 4-1-1 6-1 1h3l7 11 7 8 4-1 2-1 1 3-5 3h-3l1 4-6-1 5 6-4-1-11-13-10-14v-2l-3-1v-3z" fill="#2B4966"/>
<path transform="translate(550,758)" d="m0 0h5l1 4-10 5-2 2 1 4 12-5h7l4 3v7l-11 11-5 3h-5l-3-5 12-3 5-4 1-4-7 1-7 3-8 1-3-2-1-8 5-6h2v-2z" fill="#29496A"/>
<path transform="translate(387,245)" d="m0 0h1v27l-1 16-2 1-7-3v-6l-2-4-13-5 2-1-1-3 2-1 1 1v-5l2 1 5 4h3l2-12-3-1 1-3 5-1 3 4 1 7z" fill="#1B508E"/>
<path transform="translate(666,623)" d="m0 0 4 2-2 4-5 5-2 3v4l5-2 8-8 6-2 3 1 4 6-1 7-8 12-2 2-4-1-2-2 7-6 3-6-1-4-6 4-7 6h-7l-4-3 1-9 6-9z" fill="#2A4464"/>
<path transform="translate(700,525)" d="m0 0 4 1-1 13 3-1 3-9 1-1h5l-1 4-1 8 2 2 4 1 2-11 2-3 5 1-6 20-2 1-24-5-1-1 1-9z" fill="#3A4E6A"/>
<path transform="translate(337,472)" d="m0 0h2v3l-10 6-10 4-6 7-1 7 3 6 9 8 10 3 2 2v8l-7-6-8-5-5-2h-4l-2 13-3-3v-2h-2l-1-4v-16l4-1v-6l6-9 6-5 8-4 8-3z" fill="#070517"/>
<path transform="translate(264,684)" d="m0 0 8 4 3 3v3l4 2v3h-2l1 4-3 7-2 1v3l-6 3-3-1-2 4 5 1-3 1v2l3 1h-10l-9-5-7-8-4-8v-4l6-1v-7l-1-2 3-1 2 2v6l-2 4 3 7 4 5 4 2 7-1 6-4 4-5 1-9-3-5-4-3-6-1z" fill="#294866"/>
<path transform="translate(206,73)" d="m0 0h18l1 3 4-1 10 9 1 3-1 1-10 1-2 2h-6l-4-7-5-1-10 4 1-8 1-3h2z" fill="#09083F"/>
<path transform="translate(429,448)" d="m0 0h17l-2 4-8-2 1 3-14 2-12 5-6 4h-2l-2 4v6l4 4 1 6 2 7-6-2-3-6-2-6-6-5v-2l4-1 4-8 9-8 14-4z" fill="#09081A"/>
<path transform="translate(553,71)" d="m0 0h14l9 6 7 7 1 4-11 1-3 3-5-1-5-7h-9l-1-2 4-8-2-2z" fill="#0C0D43"/>
<path transform="translate(329,555)" d="m0 0 4 1 6 6 2 6h-22l-13-1h-60v13l2 5 2 3-1 4-7-10-4-10v-5l1-1h-6l-1-2 20-1 26 1h45l8-3h2z" fill="#D26B57"/>
<path transform="translate(428,792)" d="m0 0 9 3 5 4 3 6v9l-2 6-4-1v6l-4 1-1-4 2-4 3-4-2-10-4-4-6-1-7 4-1 2v13l-7-3-1-6 3-9 5-5 3-2z" fill="#3A5C7C"/>
<path transform="translate(644,71)" d="m0 0 4 1v59l-4 1-11-1v-4h6l3-2 2-9 1-11v-13l-3-6-5-2-1-1-2 2v-13z" fill="#0E0E3C"/>
<path transform="translate(426,515)" d="m0 0 4 1 6 8 4 6v2l4 2 7 13 2 2 6-1 10-7 3-3 3-7v-8l5 1 1 2v8l-4 9-5 5-12 7h-3l2 3-1 4-3-3-3-6-4-5-7-13-6-7-5-8z" fill="#7B4C56"/>
<path transform="translate(713,444)" d="m0 0h3l-1 5-2 3 1 6 2 5h10l5-4v-9l-2-6 5 1 2 4v12l-6 8-3 2h-10l-5-3-4-7-1-11 4-5z" fill="#283046"/>
<path transform="translate(495,778)" d="m0 0 7 2 5 4 2 7v4l2 1 1 4-4-2-5-4 1-4h-2v6l-4 2 2-4v-6l-4-3-5 1-3 3v6l3 3 5 1v1h-6l-5 3-5-7v-8l6-7z" fill="#4C6A8E"/>
<path transform="translate(246,231)" d="m0 0 5 2v5l-15 5-4 1 2 7 5 1v3h-3l-1 2-1-3-3-1-3-3-2 2h2l1 4-5-1-4-12v-3l16-6z" fill="#24435D"/>
<path transform="translate(119,118)" d="m0 0h20l2 7v6l-36 1-5-1v-2l14-1 3-3 7-2v-3l-5-1z" fill="#070740"/>
<path transform="translate(412,782)" d="m0 0h4l-1 6-8 16-9 17-5 9h-4l-1-4 8-16 10-19z" fill="#49607E"/>
<path transform="translate(533,556)" d="m0 0h2v19l-13 9-16 7-10 4-9 5-9 1-16 5-3-1 31-11h-7l3-2 23-7 15-6 4-3h2v-11l-1-5 2 1z" fill="#304863"/>
<path transform="translate(624,227)" d="m0 0 11 1 10 4 2 2v8l-4-1-6-5-6-2h-6l-1 3 1 5-3-1h-1v2l-5 1-2-1v-2h-2l1-7 2-4z" fill="#204566"/>
<path transform="translate(627,680)" d="m0 0 5 1 11 7 5 6v7l-8 9-3 1-1-2 5-8-1-4-9-6-11 1 6-11z" fill="#525E75"/>
<path transform="translate(488,96)" d="m0 0h28v11h-24l-3-2 1-4z" fill="#08073E"/>
<path transform="translate(312,512)" d="m0 0 7 1 9 5 7 7v-7l-9-3v-1h9l2 3 1 10 3 5 11 1 5 6 7 9v2l10 3 2 9 2 4-4-2-2-4v-6l-7-1-7-8-7-9-6-1 1 3 4 2 6 7v3h-2l-2-5-7-6-4-4-4-3v-2h-2l-5-6v-2l-4-2-9-5-4-1 1 4-3 1 1 10 2 1-3 3-5-9 1-3 2 4 2-12z" fill="#8D4F54"/>
<path transform="translate(166,455)" d="m0 0h6l1 7-5 2-19 4-14 1-2 1v-3l6-2v-6h2l1 2 5-1 1 3v-3l10-4z" fill="#21405F"/>
<path transform="translate(664,75)" d="m0 0h1v9h2v20l1 18h9l1-3 2 2v10l-3 1-13-1z" fill="#07063F"/>
<path transform="translate(309,256)" d="m0 0h2l5 8 7 3h9v6l-4 3-12-2-8-4-6-7-1-5 5 2 1-2 2-1z" fill="#3C4C67"/>
<path transform="translate(577,287)" d="m0 0 12 1 1 1 9 1 1 3 10 2 18 6 4 3v2l11 3-1 3 6 8-4-2-11-8-6-3-14-8-12-4-12-2-21-1v-2l5-2z" fill="#39435B"/>
<path transform="translate(154,328)" d="m0 0h6l2 1v38h-1l-1-11h-2l-1 3-3-2h2l-2-3-1-1v-24z" fill="#385072"/>
<path transform="translate(387,460)" d="m0 0 1 4-1 3-19 2v1h-19l-8 4-1 3-6 5-9 2-9 7-2 2v8l7 8 2 3-4-2-7-8-1-4 2-7 6-7 12-5 6-4h2v-3l-7 4-2-1 5-4 6-3 11-2 26-1 7-1z" fill="#38425C"/>
<path transform="translate(155,376)" d="m0 0 7 1 2 22v10l-5 1h-7v-2l2-1-1-6 2-2z" fill="#244565"/>
<path transform="translate(270,96)" d="m0 0h26v10h-25z" fill="#07063F"/>
<path transform="translate(154,377)" d="m0 0 2 2v20l-4 2-4 1-6-1-1 2-7 1-8-4 3-1 7 1v-20l6-2 2 5v16l10-1z" fill="#28588E"/>
<path transform="translate(483,420)" d="m0 0h1l1 13v10l2 14v16l8 16 2 7h3l3 9-5-5-7-11v-2h-2l-6-10-5-6-2-4 1-4 4 5v2h2z" fill="#CA5445"/>
<path transform="translate(699,553)" d="m0 0h6l8 5 3 4v11l-2 4-2-2-2-11-5-2-9 1-4 3-3-2 2-5 5-4z" fill="#446181"/>
<path transform="translate(419,284)" d="m0 0h1l2 7 2 4 7 2h6l3-2h4l-1 7-7 2h-9l-8-2-2-4h2v-3l-2-1v-3h-2v4h2v2l-3-1-3-7 5 1v-3z" fill="#1E4366"/>
<path transform="translate(105,75)" d="m0 0 2 1-3 3v48h7l3 2h-14l-1 2-1-2 1-46 2-6z" fill="#131749"/>
<path transform="translate(561,238)" d="m0 0 2 3 2 6 2 2 2 3-1 2 3 1h12l6 2 1 3-1 1-23-1-7-2v-11z" fill="#28465E"/>
<path transform="translate(350,567)" d="m0 0 6 2 5 5 3 5 6 5 5 3 2 4 8 6 7 10 3 1v-18l-4-6-9-9-6-3-2-5 2 1v2l5 2 8 7 7 8 2 4 1 12-2 8-6-1-5-6-4-6-14-12-6-5-6-8-6-5z" fill="#804D55"/>
<path transform="translate(412,72)" d="m0 0h48v10l-19 1-1 6h-1v-7l2-8-29-1z" fill="#0B0B41"/>
<path transform="translate(365,742)" d="m0 0 11 3 4-1 8 4 7 4 1 3h-4l-5 1-5-3h-3l1 2 3 2-5-1-15-9-1-2h2z" fill="#2D3F64"/>
<path transform="translate(466,791)" d="m0 0h5l1 3-4 4-12 5-2 2 1 11 4 2-1 2-4-1-5-8-2-5v-5l4-3z" fill="#4A698A"/>
<path transform="translate(159,431)" d="m0 0h2l1 7-7 7-8-1-5 7-7 6-6 3 1-5 16-16 1-2 11-3z" fill="#254867"/>
<path transform="translate(257,265)" d="m0 0h5l1 4-5 3-18 7-6 1-2-2 1-3v2l2-2 2-4 1-5h2l1 2 9-1z" fill="#355270"/>
<path transform="translate(523,557)" d="m0 0h6l-1 2-6 1-27 8-29 7-6 2h-7l4-2 16-5h2v-2l24-6 7-1v-2l7-1-3 2 10-2z" fill="#6B4A57"/>
<path transform="translate(198,555)" d="m0 0h4l2 5v3l-25 11-2-1 1-5 5-2h3l-1-4 5-4z" fill="#214362"/>
<path transform="translate(682,284)" d="m0 0 2 1 1 10 1 4h12l4-1 5-2 1 3-4 4-12 4h-7l-4-8-1-3v-9z" fill="#3E546F"/>
<path transform="translate(502,798)" d="m0 0 5 1-1 2-8 3-3 4 1 9 4 6-1 5-5-2-4-5-3-6-1-12h5l4 2 2-5z" fill="#6F849C"/>
<path transform="translate(426,489)" d="m0 0h10l11 2 8 4 1 2v9l-2 4-1 9-4 1-1-2 3-13v-7l-4-2-17-3z" fill="#050315"/>
<path transform="translate(708,480)" d="m0 0 1 4 3 2-2 5 2 5 4 3 8 1v1l-7 1 1 2h10l-3 3h-10l-7-4-3-4-1-3v-8z" fill="#627893"/>
<path transform="translate(471,459)" d="m0 0 5 4 3 8 8 10 2 6h2l9 14 4 6v2l-4-2-7-10-7-11-9-9-6-11z" fill="#050315"/>
<path transform="translate(428,792)" d="m0 0 5 1-2 4h-4v2l-7 4-1 2v13l-7-3-1-6 3-9 5-5 3-2z" fill="#384F69"/>
<path transform="translate(368,499)" d="m0 0h15l-1 7-1 5v11l1 2-7-1-1-4 3-15h-15v-3z" fill="#050315"/>
<path transform="translate(401,556)" d="m0 0 14 1 7 1h30l6 8v5l-5 3-19 6-15 4-4-1 21-7 17-5 1-5-1-4h-2l-1-2h-31l-18-3z" fill="#A15252"/>
<path transform="translate(298,719)" d="m0 0 6 1 10 9 2 4-1 4-4-1-8-7h-5-3l-1-5 4-1-4-2-1 2-4-2 1-1z" fill="#144681"/>
<path transform="translate(240,641)" d="m0 0 4 2 6 4 4 9 2 9-5 4h-2l-3-13-5-8z" fill="#192239"/>
<path transform="translate(316,228)" d="m0 0h12l10 3 6 6v6l-2 2-3-5-1-4-8-1v-2h-8l-1 2-3 2h-3v-3l-2-1h2v-3l-2-1z" fill="#224361"/>
<path transform="translate(416,509)" d="m0 0 8 6 9 14 6 8 8 13v5l-3 2h-15l-19-2 1-2 7 1 21 1 4-1-1-6-8-13-5-4-7-14-6-6z" fill="#844E55"/>
<path transform="translate(482,818)" d="m0 0 4 1 2 4v11l-5 6-10 5h-7l-1-2 3-3 8-3 5-4 2-3v-8z" fill="#222C42"/>
<path transform="translate(498,314)" d="m0 0 2 1-9 7-5 3-3 1 1 81v11h-2l-1-68-1-25 9-5z" fill="#C55448"/>
<path transform="translate(564,220)" d="m0 0h27l2 4-2 4-19-2-2 2-5-2z" fill="#2A4B68"/>
<path transform="translate(516,124)" d="m0 0 2 3 1 4-7 1-40-1 1-2 29-3 12-1z" fill="#050416"/>
<path transform="translate(483,240)" d="m0 0 5 1 1 4-7 3-11 3-2 4v-4l-1 2-7-1-1-4 6-3z" fill="#1D3E61"/>
<path transform="translate(496,74)" d="m0 0h21v8h-21l-4-2 3-1z" fill="#090A43"/>
<path transform="translate(627,244)" d="m0 0 7 2 7 6 1 7-4 4h-6l-1-7-4-4-1-7z" fill="#2C4662"/>
<path transform="translate(654,653)" d="m0 0 8 1 6 5 1 3v8l-2 4-3-1 1-2-5-8-6-4-6-1 1-3z" fill="#3E4C63"/>
<path transform="translate(678,629)" d="m0 0 5 1 4 6-1 7-8 12-2 2-4-1-2-2 7-6 3-6-1-4-3 1v-3h5l1-3h-5l-5 3-2-1 6-5z" fill="#5A718E"/>
<path transform="translate(395,524)" d="m0 0h9l1 5-1 10-4 7v6l6 2v1h-8l-2-1 1-21 1-5z" fill="#050315"/>
<path transform="translate(596,72)" d="m0 0h2l1 2v53l4 1 8 1v2h-15z" fill="#060417"/>
<path transform="translate(256,72)" d="m0 0h44l-1 8h-11l-7-4-6-1v-2h-19z" fill="#060416"/>
<path transform="translate(249,592)" d="m0 0 5 2 3 6 6 8 6 7 4 4 6 10 8 12 8 11 1 4h2l-1 2-4-4-7-10-2-5h-2l-7-11-3-5-3-3v-2h-2l-10-13-7-10z" fill="#D15442"/>
<path transform="translate(110,436)" d="m0 0 6 2 3 2 1 4 1 15 3 3v2h-6l-4-4v-16l-5-6z" fill="#273046"/>
<path transform="translate(329,555)" d="m0 0 4 1 6 6 2 6h-22l-27-2v-1l31-1 8-3h2z" fill="#D49B73"/>
<path transform="translate(470,265)" d="m0 0h5v8l1 4h6v2l4 1 1 2-13 4-4-1v-6-3l-1-10z" fill="#244463"/>
<path transform="translate(424,94)" d="m0 0h1l1 25 3 4v2h8l2-9h1l1 13 1 2h-19z" fill="#07063F"/>
<path transform="translate(513,120)" d="m0 0h5l1 1v8l-3-4-2 1-19 2h-10v-1h6l1-5 5-1z" fill="#101149"/>
<path transform="translate(727,410)" d="m0 0 5 1 4 5 1 8-1 6-2 1-2 3-3 2h-7v-2h3v-2l5-3 1-2v-6l-2-4-3-1v-5z" fill="#313D54"/>
<path transform="translate(412,782)" d="m0 0h4l-1 6-6 11-6 9-4-2 2-6 10-17z" fill="#384A68"/>
<path transform="translate(298,658)" d="m0 0h2l7 8 18 20 9 9v2l4 2 8 10 4 4-1 2-5-4-4-5-4-4-8-10-8-7-8-9v-2l-4-2-10-13z" fill="#D15442"/>
<path transform="translate(677,597)" d="m0 0 3 1-1 7-4 9v3l5-1v2h-2l-1 2-9-2-1-4 9-16z" fill="#5E7692"/>
<path transform="translate(386,572)" d="m0 0 5 1 2 5h2l3 4v2l10 1 11-2h7l1 2-17 4-2 1-2 4-2 16h-1v-11l2-10-5-1v-2l-3-1-8-10z" fill="#3A435C"/>
<path transform="translate(445,447)" d="m0 0h11l11 3 6 7 3 4-1 2-3-3-2 1-3-5-7-2-3-1-13-1z" fill="#344D69"/>
<path transform="translate(550,758)" d="m0 0h5l1 4-10 5-2 2 1 4 9-3-1 4-7 1-7-1v2h-3l1-7 4-4h2v-2z" fill="#597493"/>
<path transform="translate(674,471)" d="m0 0 3 4v8l-2 7-5 3-3-1-2 2 2-12 3-7 2 2 1-4z" fill="#27445B"/>
<path transform="translate(251,246)" d="m0 0h3l1 7-7 3-9 3v2h-2l-2-7 3-1-1-2z" fill="#21538A"/>
<path transform="translate(479,593)" d="m0 0 4 1-3 2-19 5-9 3-37 9h-2v-2l32-9 21-5z" fill="#724B57"/>
<path transform="translate(718,322)" d="m0 0 3 3v7l-5 1v2l-11-1v2h-4v2h-2v8l-2-1-1-11 2-2 14-1z" fill="#15253F"/>
<path transform="translate(438,811)" d="m0 0 2 4-3 3v3l-2 1-1 5-2 1v-3h-10l-7-4-3-4 1-2h3l2 2 2-2 4 4h8l5-5z" fill="#435E78"/>
<path transform="translate(184,609)" d="m0 0h4l8 16 1 4-5-2-1-4-2 2-1 4-7-14 1-4z" fill="#3E5572"/>
<path transform="translate(700,525)" d="m0 0 4 1v16h-2v2l4 1 1 3-11-2-1-1 1-9z" fill="#4F637F"/>
<path transform="translate(369,496)" d="m0 0 14 1v2l-15 1-6 2v1h13l2 1-1 11-1 8 3 1-2 1-3-2 1-10 1-8-3 1h-12l-2-2 1-4 6-3z" fill="#8B4F54"/>
<path transform="translate(591,733)" d="m0 0 4 1 1 1 4-2 8 8v5l-4 2-8-7-7-6z" fill="#647891"/>
<path transform="translate(538,252)" d="m0 0h7l3 3v2l5 2 3 1-1 3h-14l-5-4v-3l4-1z" fill="#254060"/>
<path transform="translate(214,594)" d="m0 0 5 1 6 11 1 6h-4l-5-4-5-9 1-4z" fill="#313B51"/>
<path transform="translate(710,383)" d="m0 0h2v2l-3 1v2l2-2v2l4 2 8 2-1 3h-2v2l-6 1-7-3-2-2v-7z" fill="#5B728D"/>
<path transform="translate(627,680)" d="m0 0 5 1 11 7 2 3-4-1-2-1v2h-2v-3l-6-1-1 2 5 2-2 1-7-1-6 1 6-11z" fill="#485B75"/>
<path transform="translate(264,684)" d="m0 0 8 4 3 3v3l4 2v3h-2l1 4-3 7-2 1v3l-6 3h-7v-2l8-4 5-6 1-9-3-5-4-3-6-1z" fill="#154C89"/>
<path transform="translate(209,648)" d="m0 0h3l3 13-3-1 2 5v3l-5-1-5-10 1-5z" fill="#324B68"/>
<path transform="translate(732,108)" d="m0 0 5 2 10 1 1 5-4 6-4 2-1-7 1-2-10 1 1-7z" fill="#151453"/>
<path transform="translate(407,72)" d="m0 0h4v2h13v7l-17 1z" fill="#06053F"/>
<path transform="translate(133,339)" d="m0 0 3 3v6h2l2 6 2 4-8-6-7-6-1 21-2 1v-13l1-11h3l-1-3 5 1z" fill="#174D8A"/>
<path transform="translate(566,745)" d="m0 0h2v3h2l1 2 3-4 5 2 1 3-5-1 3 7 2 1v2h-7v7l-2-4-3-7z" fill="#365B84"/>
<path transform="translate(718,475)" d="m0 0 8 1 5 4v8l-7-7-8-1v2h-4v3l-4-1 1-5 4-3z" fill="#29344B"/>
<path transform="translate(205,71)" d="m0 0h18l5 4-3 1-1-2-18-1v2l-5 2-11 11-2-1 2-5 6-7z" fill="#262C56"/>
<path transform="translate(563,292)" d="m0 0m-10 1h10l6 1v1l-20 2-17 4-20 8-6 3-2-1 10-6 8-3 17-6z" fill="#BE564D"/>
<path transform="translate(270,96)" d="m0 0h26v10l-5-2-1-2-11-2-6-1z" fill="#050315"/>
<path transform="translate(700,281)" d="m0 0 4 1 7 14-1 4-4 2-3-2 4-2h-4l-4 2-7-1 4-2 8-3-2-6-5-6z" fill="#3E5474"/>
<path transform="translate(546,72)" d="m0 0 3 1-4 6-4 1-3 9-9 4 1-5 6-9 8-6z" fill="#12154A"/>
<path transform="translate(490,96)" d="m0 0h26v11h-16l4-2h7l-5-5-2-1v-2l-12 1z" fill="#050315"/>
<path transform="translate(502,790)" d="m0 0h2l1 6 6 3 1-2 5 4v3l-4 1v-2l-5-1-5-3-6 2-2 4-9-2 1-2h2l1-2h6l5-3z" fill="#1F2F49"/>
<path transform="translate(686,602)" d="m0 0 4 1-1 5-4 8-2-1-1 2 2 1-4 4-7-2 4-1 3-1v-2l-5 1-1-4 6-2z" fill="#446183"/>
<path transform="translate(565,108)" d="m0 0 6 1 5 2 6 1-1 6h-3l-3-1v-2l-5 2-5 1h-1v-7z" fill="#1E204F"/>
<path transform="translate(157,392)" d="m0 0 2 1v6l4 2 1-2v10l-5 1h-7v-2l2-1-1-6 2-2z" fill="#2D4766"/>
<path transform="translate(608,260)" d="m0 0 5 3 15 1 8 2-2 4-6 1-13-3-8-6z" fill="#2D4E70"/>
<path transform="translate(476,463)" d="m0 0 3 3 2 5h4l2 7h2l6 11 2 7h3l3 9-5-5-7-11v-2h-2l-6-10-5-6-2-4z" fill="#91575A"/>
<path transform="translate(120,378)" d="m0 0h7l1 5v13l-2 2-5-3v-9l2-6h-3z" fill="#24496B"/>
<path transform="translate(605,252)" d="m0 0 4 2 6 4 9 3-4 1-3-1 1 3-7-1-2-1 5 5-6-2-4-4v-8z" fill="#566E85"/>
<path transform="translate(591,723)" d="m0 0h3l1 6 2-3 4-1-1 4 2 1-3 1-1 5h-3l-2-2h-5l-3-3v-3z" fill="#244161"/>
<path transform="translate(713,444)" d="m0 0h3l-1 5-2 3 1 6 2 5 2 1h-4l-3-3 1 6-3-4-2-7v-6l4-5z" fill="#3C485E"/>
<path transform="translate(482,785)" d="m0 0h2l1 2 3 2v6l3 3 5 1v1h-6l-5 3-5-7v-8z" fill="#64758D"/>
<path transform="translate(702,553)" d="m0 0 5 1 6 4 3 4v11l-2 4-2-2-2-13-5-4-3-2z" fill="#1F273E"/>
<path transform="translate(454,804)" d="m0 0 2 4 1 3 8-2 2-1h7v1l-7 2 5 2-4 2-7 4-4-2-3-3-1-9z" fill="#4873A3"/>
<path transform="translate(350,567)" d="m0 0 6 2 5 5 3 5 6 5 5 3 2 4 8 6 3 4-1 2-5-5-14-12-6-5-6-8-6-5z" fill="#8E4F54"/>
<path transform="translate(123,128)" d="m0 0h16l1 3-35 1-5-1v-2z" fill="#0A0A1E"/>
<path transform="translate(337,725)" d="m0 0h6l2 4 4 1 1 2h5l3 3-1 4-4 1-14-10-2-2z" fill="#324369"/>
<path transform="translate(294,721)" d="m0 0 5 2-4 1 1 7-3 2h-6v-2h-2l-1-5 3-4h6z" fill="#34446A"/>
<path transform="translate(725,386)" d="m0 0 2 1v8h-4l1 1h9l2 2v4l-11-1-7-2 1-2h2v-2l2-1z" fill="#0D162E"/>
<path transform="translate(437,259)" d="m0 0 7 2 6 5-1 7-4-2-5-3-6-2z" fill="#2F5177"/>
<path transform="translate(686,474)" d="m0 0h1l-1 11-4 15-2-1-1-3-1-6 3-11 4-2z" fill="#284A6B"/>
<path transform="translate(388,461)" d="m0 0 2 1 2 4 6-3-2 6-5 1v2l-4-2h-19l-9-1v-1l28-1z" fill="#685566"/>
<path transform="translate(170,92)" d="m0 0h1v39h-16v-3l10-1 2-2 2-6z" fill="#050315"/>
<path transform="translate(195,290)" d="m0 0 7 7 4-1 2-1 1 3-5 3h-3l1 4-6-1 5 6-4-1-8-10 1-2 2 4h4v-2h2v-2l-4-1 3-2z" fill="#25486D"/>
<path transform="translate(532,223)" d="m0 0h7l5 4 2 4-1 9-2 3h-2v-8l-4-6-3-3v-2z" fill="#305272"/>
<path transform="translate(275,711)" d="m0 0 1 3 1 2v3l-5 4-2 1h-6v-2l-3-2 3-4 5-1 4-1 1-2z" fill="#27435C"/>
<path transform="translate(533,556)" d="m0 0h2v19l-11 8-2-1v-2l6-4h2v-11l-1-5 2 1z" fill="#24405C"/>
<path transform="translate(447,552)" d="m0 0 2 3v2l2 1-11 1h-18l-22-3v-1h17l12 1h15l2-1z" fill="#374059"/>
<path transform="translate(491,273)" d="m0 0h7l1 5-8 3h-5l-4-2v-2h-6v-1l11-2z" fill="#3E5373"/>
<path transform="translate(225,557)" d="m0 0 3 4 1 4h2l4 11-2 1 1 6-1-2-4 1-2-6v-7l-2-6z" fill="#204061"/>
<path transform="translate(678,123)" d="m0 0 2 2v6l-3 1-13-1v-5h2l1-2 2 1z" fill="#09081A"/>
<path transform="translate(158,535)" d="m0 0 3 1h-2l2 4 2 2h-2l-2 5h-6l-3-5v-5z" fill="#1E5089"/>
<path transform="translate(516,524)" d="m0 0 5 5 2 5 5-2 9-5v4l-4 1-3 4h-2l2 4v4h2l3 6-1 2-4-4-6-11-4-5-4-6z" fill="#3B526E"/>
<path transform="translate(424,490)" d="m0 0 4 1 11 3 11 2 2 2v7l-4 16h-1l1-14 1-2v-6l-20-4z" fill="#8C4F54"/>
<path transform="translate(214,293)" d="m0 0 1 3-1 4-11 9-5-1-2-4h5v-3l9-2 2-5z" fill="#243D58"/>
<path transform="translate(572,235)" d="m0 0h14l4 4v4l-10-1-8-4z" fill="#2A435D"/>
<path transform="translate(688,563)" d="m0 0 5 3v6l12 4h4v4l-9-1v-2l-3 1-5-2-2-7-1 4-3-1z" fill="#537395"/>
<path transform="translate(337,475)" d="m0 0h3v2l-6 5-9 2-9 7-2 2v8l7 8 2 3-4-2-7-8-1-4 2-7 6-7 12-5z" fill="#7A4C56"/>
<path transform="translate(581,756)" d="m0 0h3l-1 4-2 1-1 5v5l-2 2h-3l-2-4-1-10 8 1z" fill="#0A091C"/>
<path transform="translate(571,255)" d="m0 0h12l6 2 1 3-1 1-20-1z" fill="#294968"/>
<path transform="translate(337,472)" d="m0 0h2v3l-10 6-10 4-5 4-2-2 8-7 8-4 8-3z" fill="#132841"/>
<path transform="translate(677,632)" d="m0 0h5l1 2h-2v2h-5l-1 4-6 6-2-1 1-2-4-1 5-6z" fill="#2A405D"/>
<path transform="translate(699,606)" d="m0 0 3 1-6 17-1-2h-3v-2l-4-1 5-5 4-7z" fill="#728399"/>
<path transform="translate(454,519)" d="m0 0 4 1 22 2 2 2v6l-3-6h-3v7h-1l-2-6-15-1-10-2v-1h6z" fill="#B35551"/>
<path transform="translate(412,495)" d="m0 0 5 3 2 3v5h2l1 4 3 1 1 4-4-1-6-5-4-10z" fill="#0F0B1D"/>
<path transform="translate(710,528)" d="m0 0h5l-1 4-1 8 2 2 4 1 1-2v4l-9-1-5-6 3-9z" fill="#75889F"/>
<path transform="translate(356,124)" d="m0 0v3l-8 4h-18l-5-2v-2h20l8-2z" fill="#0F0D20"/>
<path transform="translate(466,791)" d="m0 0h5l1 3-4 4-13 2-2-2 8-5z" fill="#1D2E49"/>
<path transform="translate(346,533)" d="m0 0h6l5 6 7 9v2l10 3 2 9 2 4-4-2-2-4v-6l-7-1-7-8-7-9-5-2z" fill="#905054"/>
<path transform="translate(155,355)" d="m0 0 2 3 1-2h2l1 11-5 1-5-2 3-2-5-4 2-1 1-3z" fill="#38445E"/>
<path transform="translate(531,91)" d="m0 0h1l2 24-3 1-3-9v-14z" fill="#0E1145"/>
<path transform="translate(251,715)" d="m0 0 9 1 4 2-2 2 5 1-3 1v2l3 1h-10l-1-3-2-1v-2l-4-2z" fill="#1E4264"/>
<path transform="translate(326,514)" d="m0 0h9l2 3 1 10 3 5 5 1v3 2l4 2 6 7v3h-2l-2-5-7-6-9-9-1-4v-8l-9-3z" fill="#584658"/>
<path transform="translate(477,523)" d="m0 0 3 1 1 4-3 10-3 5-10 7-3-1 9-7 3-4 2-6z" fill="#050315"/>
<path transform="translate(211,81)" d="m0 0h7l5 3 7 2 9 1v1l-10 1-2 2h-6l-4-7-8-1z" fill="#272F45"/>
<path transform="translate(570,741)" d="m0 0h5l3 2v2l6 2-2 4h-2l-3-3h-4v2l-3 1v-3h-2l-1-4z" fill="#2B3E59"/>
<path transform="translate(652,652)" d="m0 0h2v2l-4 3 5 2-2 1-5 1-3 4-1 6-5-5 2-6 7-6z" fill="#566A83"/>
<path transform="translate(637,230)" d="m0 0 6 1 4 3v8l-4-1-6-5-3-2h2z" fill="#2C4F6E"/>
<path transform="translate(111,72)" d="m0 0 5 1-1 42h-1l-1-9v-27l1-5-7 1z" fill="#09081B"/>
<path transform="translate(237,670)" d="m0 0 1 3 2 1-5 6-5 1h-6v-3l3-1h2l1-5 4 1 1-2 2 1z" fill="#2A4A6C"/>
<path transform="translate(498,505)" d="m0 0 6 4v-2l4 2 3 5-1 5 6 12-1 2-5-9-7-12-5-5z" fill="#76545E"/>
<path transform="translate(564,220)" d="m0 0h24l-4 2h-5l-3 3-4 1-2 2-5-2z" fill="#20425E"/>
<path transform="translate(543,125)" d="m0 0h5l2 2 18 1v2l-2 1h-17l-8-4z" fill="#090833"/>
<path transform="translate(481,833)" d="m0 0 1 3-3 4 2 1-8 4h-7l-1-2 3-3 8-3z" fill="#233048"/>
<path transform="translate(224,638)" d="m0 0 2 4-2 1 2 6 2 5-1 5 1 7-2-3-5-14v-8z" fill="#265488"/>
<path transform="translate(225,109)" d="m0 0 12 3 1 3-3 6h-3v-6h-9v-3-2z" fill="#0F1023"/>
<path transform="translate(666,623)" d="m0 0 4 2-2 4-5 5-2 3v5h-2l-3-6 6-9z" fill="#6C7C8F"/>
<path transform="translate(197,604)" d="m0 0h4l1 5 2 7 3 4-1 4-3-1-7-14z" fill="#3E546D"/>
<path transform="translate(191,286)" d="m0 0h2l5 9v4h-2v2h-4l-3-3-2-1 1-4 3-1z" fill="#36435C"/>
<path transform="translate(409,277)" d="m0 0h1l2 7 3 2 3-3v4h-2v3h-4l3 6 2 1v-2h-2v-4h2v3l3 1-2 4 1 2-4-2-4-5-2-6z" fill="#265993"/>
<path transform="translate(404,830)" d="m0 0 6 2 5 2-1 4-5 2-7-4v-5z" fill="#47586F"/>
<path transform="translate(393,617)" d="m0 0 5 2-4 2-1 63h-1l-1-56 1-10z" fill="#E2B088"/>
<path transform="translate(664,669)" d="m0 0 2 3-1 1 2 2-7 8-3-3h-5v-2h-4v-2h11z" fill="#6D7B90"/>
<path transform="translate(666,483)" d="m0 0h1l-1 8-2 9h-13l3-2 4-1 1-3 3-3 3-7z" fill="#B95A54"/>
<path transform="translate(191,622)" d="m0 0h1l1 5 7 1 1 5-4 2-4-1-4-4-1-6z" fill="#183453"/>
<path transform="translate(321,538)" d="m0 0 4 2 3 4v3l4 2 10 7 5 6v2l3 1v2l-4-2-4-5v-2h-2l-3-3-9-5-5-8v-2h-2z" fill="#744B56"/>
<path transform="translate(424,94)" d="m0 0h1l1 30 2 5h13l1 2h-19z" fill="#09081B"/>
<path transform="translate(631,686)" d="m0 0 4 1 2 1v3h2l-1-3 4 2 5 2-1 3-5 1-5-2-4-4-2-1z" fill="#272F44"/>
<path transform="translate(442,547)" d="m0 0h3l2 3v5l-3 2h-15l-19-2 1-2 7 1 21 1 4-1z" fill="#B85651"/>
<path transform="translate(559,782)" d="m0 0 1 4-8 6h-5l-3-5 12-3z" fill="#5D6980"/>
<path transform="translate(140,378)" d="m0 0 3 1 1 4-1 15-2-1-1-9-3-1v-8z" fill="#101326"/>
<path transform="translate(120,380)" d="m0 0h3l-1 6v9l4 2 2-1-1 5-3 4-3-1-1-6z" fill="#1F3248"/>
<path transform="translate(395,816)" d="m0 0 1 3-1 2h2l-1 4-4 6-4-2 1-5 4-6z" fill="#203450"/>
<path transform="translate(279,745)" d="m0 0 4 5 2 3-1 5-4-1-6-6 1-3h4z" fill="#3A5778"/>
<path transform="translate(404,523)" d="m0 0h3l1 4-1 2-2 12-4 6 1 4 8 2v2l-8-1-3-2v-6l4-7 1-10z" fill="#8B4F54"/>
<path transform="translate(621,300)" d="m0 0 7 1 4 3v2l11 3-1 3 6 8-4-2-7-6-4-4-12-7z" fill="#29445B"/>
<path transform="translate(511,819)" d="m0 0 1 4-2 5-10 1-2-6 9-1z" fill="#486079"/>
<path transform="translate(645,105)" d="m0 0h1v18l-2 6-7 2-5-1 1-3h6l3-2 2-9z" fill="#07073E"/>
<path transform="translate(726,82)" d="m0 0 6 1 3 2 6 2-4 4h-6l-5-7z" fill="#13182E"/>
<path transform="translate(306,725)" d="m0 0 5 1 4 5 1 5-4 1-7-6 2-3z" fill="#1F4165"/>
<path transform="translate(716,333)" d="m0 0 3 1-4 3-6 2 1 8-4-1 1-2-1-7-5 1v-2h4v-2h8l3 1z" fill="#7291B4"/>
<path transform="translate(498,314)" d="m0 0 2 1-9 7-5 3-3 1-1 24h-1l-1-25 9-5z" fill="#C25B52"/>
<path transform="translate(480,528)" d="m0 0h1l-1 9-4 7-7 6-9 5h-3l2 5-3-2 1-5 7-3 9-7h2l2-5z" fill="#945054"/>
<path transform="translate(718,378)" d="m0 0h3v2l5-1 1 3h-6l-1 2-5 1v3h-5l-2 1 1-4h3l1-4z" fill="#1F3150"/>
<path transform="translate(728,372)" d="m0 0 4 1-1 5-3 6-3-4h-4v-2l-2-1 8-4z" fill="#3A516E"/>
<path transform="translate(636,250)" d="m0 0 5 2 1 7-4 4-2-1 1-2h-2l-1-8h2z" fill="#2A4C6B"/>
<path transform="translate(246,231)" d="m0 0 5 2v5l-9 2-1-6-2-1z" fill="#39597A"/>
<path transform="translate(382,469)" d="m0 0h5l2 2 5 2 5 5 3 10 4 2v2l-5-2-3-5v-6h-2l-3-3-5-3-9-2z" fill="#7A4C56"/>
<path transform="translate(706,296)" d="m0 0 2 3-4 4-11 2 1-4-3-1 4-1 7-1z" fill="#0F1429"/>
<path transform="translate(571,294)" d="m0 0h13l21 4v1h-15l-10-2v-1l-9-1z" fill="#D15442"/>
<path transform="translate(440,811)" d="m0 0h2v3h2l-1 6-4-1v6l-4 1-1-4 2-4 3-4z" fill="#254A6F"/>
<path transform="translate(550,758)" d="m0 0h5l1 4-11 5-2-1-1 2-2-2 3-1v-2z" fill="#224166"/>
<path transform="translate(711,496)" d="m0 0 5 3 8 1v1l-7 1-4-1zm2 6h4l1 2h10l-3 3h-10l-4-2z" fill="#7D90A8"/>
<path transform="translate(523,557)" d="m0 0h6l-1 2-6 1-16 5h-5l1-4h4v-2l7-1-3 2 10-2z" fill="#794850"/>
<path transform="translate(717,408)" d="m0 0h10l2 2-2 2-1 3-10 2-3 3 1-4 4-3h7v-2h-10v-2z" fill="#667B95"/>
<path transform="translate(560,769)" d="m0 0 3 1 5 3v5l-7 7-1-4 2-5 1-2-3-2z" fill="#1F3654"/>
<path transform="translate(249,647)" d="m0 0 3 3 4 12-1 4-4 3h-2l-1-2v-7l1 2 4 1-1 2h2l-3-11v-3h-2z" fill="#3E5B7D"/>
<path transform="translate(407,478)" d="m0 0 6 2 11 6 7 1v1h-7l-1 2-8-4-5-4-3-2z" fill="#B85651"/>
<path transform="translate(701,329)" d="m0 0 4 1 3 2-10 1-1 3 1 9 1-7h2v9l-3 1-1 2-2-9v-8z" fill="#748EAB"/>
<path transform="translate(597,115)" d="m0 0h1l1 12 4 1 8 1v2h-15v-15z" fill="#080719"/>
<path transform="translate(603,710)" d="m0 0 4 1 5 5h-6l5 1-2 1-1 3-8-6 1-4z" fill="#48536B"/>
<path transform="translate(562,502)" d="m0 0h3v2h2l-2 8-5-1-1 2-1-6 2-4z" fill="#1E405E"/>
<path transform="translate(713,410)" d="m0 0 12 1v2l-7 1-4 3-1 3-3 1v-8z" fill="#13223C"/>
<path transform="translate(455,72)" d="m0 0h5v10l-12-1 3-2 4-4z" fill="#0B0C22"/>
<path transform="translate(615,724)" d="m0 0 10 2-2 4-5 2-6-2 2-5z" fill="#374A63"/>
<path transform="translate(237,690)" d="m0 0 2 2 4-1 1 4-1 5h-6l-1-1v-7z" fill="#26435F"/>
<path transform="translate(369,496)" d="m0 0 14 1v2l-15 1-6 2v2h-2l1-5z" fill="#824D55"/>
<path transform="translate(137,448)" d="m0 0 5 1v2l-7 6-6 3 1-5z" fill="#21425F"/>
<path transform="translate(701,348)" d="m0 0h12v2l2 1-10 2-1 2h-3l-2-5h2z" fill="#090A1D"/>
<path transform="translate(732,108)" d="m0 0 5 2 7 2-2 2-12 2 1-7z" fill="#15172A"/>
<path transform="translate(228,76)" d="m0 0 5 2 7 8v1h-6l-5-5-2-5z" fill="#0A0B1F"/>
<path transform="translate(574,752)" d="m0 0h2l2 5 2 1v2h-7v7l-2-4-3-8 6-1z" fill="#5E7D9E"/>
<path transform="translate(578,744)" d="m0 0 6 1 10 4-2 3-6 1-5-1 2-5-5-2z" fill="#325C88"/>
<path transform="translate(227,636)" d="m0 0h12l1 4-7 2-3-2v-2l-5 3v-4z" fill="#0D142A"/>
<path transform="translate(405,794)" d="m0 0 2 1-1 2h3l-2 4-4 7-4-2 2-6z" fill="#2A4360"/>
<path transform="translate(539,774)" d="m0 0h9l1 3h-2l1 3-8 1-3-2v-3h2z" fill="#2A4F74"/>
<path transform="translate(450,577)" d="m0 0h3v2l-20 6-6-1 4-2z" fill="#664958"/>
<path transform="translate(440,295)" d="m0 0h4l-1 7-1 1h-9v-3h4v-3z" fill="#1E253B"/>
<path transform="translate(740,76)" d="m0 0 7 6 3 6h-9z" fill="#2E3144"/>
<path transform="translate(471,466)" d="m0 0 3 4 6 9 7 7 6 9v2h-2l-6-9-9-10-5-8z" fill="#814D55"/>
<path transform="translate(594,723)" d="m0 0h9v3l4 1 1 3h-2v-2h-2l1 3-4-1-2-4-4 5-1-2z" fill="#3A608B"/>
<path transform="translate(711,571)" d="m0 0 2 4 1 1-1 7-2 3-7-1-8-3v-1h6l2 1h6l1-5-1-3z" fill="#A2B0C1"/>
<path transform="translate(720,477)" d="m0 0h8l3 3v8l-7-7-5-1z" fill="#0C1025"/>
<path transform="translate(465,450)" d="m0 0 4 2 4 5 3 4-1 2-3-3-2 1-3-5-7-2v-2z" fill="#4D5166"/>
<path transform="translate(212,660)" d="m0 0 3 1v5h2l2 5 2 3-3 1-5-3-2-3 1-3v2h2z" fill="#141C32"/>
<path transform="translate(386,572)" d="m0 0 5 1 2 5h2l3 4v2l10 1 7-1-3 2-9 2-6-3-8-10z" fill="#965053"/>
<path transform="translate(708,448)" d="m0 0h1v7l2 1-2 4h2l1-4 4 5v2l2 1h-4l-3-3 1 6-3-4-2-7v-6z" fill="#6C87A7"/>
<path transform="translate(799,90)" d="m0 0 3 1 1 8v8l-2 5h-2z" fill="#07063E"/>
<path transform="translate(428,792)" d="m0 0 5 1-2 4-11 2 1-5z" fill="#233F5B"/>
<path transform="translate(248,713)" d="m0 0 6 1-3 3 3 2v2l3 1-1 2-5-2-6-5v-3z" fill="#364A66"/>
<path transform="translate(256,613)" d="m0 0 1 2 3 1 5 9v2h2l7 10-1 2-4-3-3-6v-2h-2l-8-12z" fill="#2A445B"/>
<path transform="translate(706,495)" d="m0 0h5l2 6 4 1-2 2h-6l-3-3z" fill="#283B59"/>
<path transform="translate(686,448)" d="m0 0h1l1 7v15l-2 8-2-1v-6l1-1v-13z" fill="#1C3753"/>
<path transform="translate(700,281)" d="m0 0 4 1 5 10h-5l-4-7-3-3z" fill="#2F415D"/>
<path transform="translate(222,127)" d="m0 0h4v2l-4 2h-18v-3h16z" fill="#08071B"/>
<path transform="translate(654,653)" d="m0 0h3l1 4 4 2-1 2-6-1-7-2 1-3z" fill="#162745"/>
<path transform="translate(438,604)" d="m0 0 2 1-4 1v2l-21 5h-2v-2z" fill="#8B4F54"/>
<path transform="translate(723,529)" d="m0 0 5 1-3 11-1-2h-4l2-9z" fill="#657D9C"/>
<path transform="translate(238,234)" d="m0 0h3v3l2 1-2 3-5 2-5-1v-4l8-2z" fill="#1F456A"/>
<path transform="translate(294,721)" d="m0 0 5 2-4 1 1 7-1 1h-5l-1-2 2-2-2-6z" fill="#214064"/>
<path transform="translate(437,610)" d="m0 0h8l-4 2-17 5-10 2 1-2 19-6z" fill="#626A80"/>
<path transform="translate(475,523)" d="m0 0h2v9l-4 9-8 7h-2l2-4 7-6 3-7z" fill="#7A4C56"/>
<path transform="translate(487,481)" d="m0 0 7 6 3 9h3l3 9-5-5-7-11v-2h-2z" fill="#674956"/>
<path transform="translate(392,526)" d="m0 0h5l2 2-1 5-1 18-1 3 4 2-5-1v-27z" fill="#7B4C56"/>
<path transform="translate(479,814)" d="m0 0 5 1 1 3h-3l2 4v8l-5-10-2-2v-3z" fill="#5C697F"/>
<path transform="translate(387,460)" d="m0 0 1 4-1 3h-35v-1l26-1 7-1z" fill="#1E405D"/>
<path transform="translate(189,297)" d="m0 0 3 2v2h4v-2l5 2 1 4-6-1 5 6-4-1-8-10z" fill="#5C6A80"/>
<path transform="translate(269,120)" d="m0 0 2 1 2 5-2 2h-15l-1-2h9l5-2z" fill="#07063F"/>
<path transform="translate(500,797)" d="m0 0h6l-4 2-5 2-2 4-9-2 1-2h2l1-2h6z" fill="#182741"/>
<path transform="translate(670,478)" d="m0 0 1 4-1 1 2 2-2 3 2 1-3 1 1 3-3-1-2 2 2-12z" fill="#2F415F"/>
<path transform="translate(657,438)" d="m0 0 1 3 2 1v5l-6-1-3-7z" fill="#D15341"/>
<path transform="translate(236,234)" d="m0 0 4 2-8 3 2 5h-5l1-3h-2v-2l-4-1z" fill="#354E6C"/>
<path transform="translate(657,653)" d="m0 0 7 2 4 4 1 4-3 1v-2l-3-1-6-6z" fill="#657D98"/>
<path transform="translate(682,284)" d="m0 0 2 1 1 15h-2l-1-3-2-1v-9z" fill="#1F2C44"/>
<path transform="translate(209,648)" d="m0 0h2v8l-2 1-2-1v3h-2l-1-5z" fill="#29354C"/>
<path transform="translate(694,556)" d="m0 0h7l-1 3-6 1v1h2l-2 4-2 1-3-2 2-5z" fill="#15253E"/>
<path transform="translate(238,266)" d="m0 0h2l1 2 3 2-2 2-1 5h-6l1-4z" fill="#395469"/>
<path transform="translate(356,266)" d="m0 0h2v6l-2 3h-6l-1-2 2-4 5-1z" fill="#1D3E59"/>
<path transform="translate(470,265)" d="m0 0h5v7l-3 1 1 3h-3l-1-10z" fill="#24435D"/>
<path transform="translate(228,246)" d="m0 0 5 1 1 4 5 1v3h-3l-1 2-1-3-3-1-3-3z" fill="#264968"/>
<path transform="translate(338,232)" d="m0 0 6 5v6l-2 2-3-5-1-4-2-1h2z" fill="#1E3450"/>
<path transform="translate(717,221)" d="m0 0 5 2 12 12-1 3v-2l-4-2-7-6-5-5z" fill="#22476B"/>
<path transform="translate(438,811)" d="m0 0 2 4-3 3v3l-2 1-1 5-2 1-1-5-6-2v-1l9-2z" fill="#818FA4"/>
<path transform="translate(225,557)" d="m0 0 3 4 1 4h2l1 8-5-2-2-8z" fill="#2A4065"/>
<path transform="translate(213,284)" d="m0 0 3 2v7l-4 1-2 5-2-1 1-5 3-4z" fill="#29445F"/>
<path transform="translate(381,278)" d="m0 0 2 2v3l4 2-1 4-7-2-1-4z" fill="#25415E"/>
<path transform="translate(557,768)" d="m0 0h7l4 3-1 2-5-2h-1l3 3-1 1h-5l-1-5-2-1z" fill="#465E7A"/>
<path transform="translate(321,267)" d="m0 0h11v6l-5-1-4 1v-3h-2z" fill="#31516E"/>
<path transform="translate(664,75)" d="m0 0h1v9h2v12l-3 1z" fill="#060533"/>
<path transform="translate(576,79)" d="m0 0 4 2 4 5v2l-9-1z" fill="#0D0E21"/>
<path transform="translate(220,578)" d="m0 0h3v2l5 1 1 7-4 1z" fill="#3B5A7D"/>
<path transform="translate(698,574)" d="m0 0 10 2 1 4-9-1v-2l-3 1-2-1v-2z" fill="#59728E"/>
<path transform="translate(720,466)" d="m0 0 10 2-3 3h-10l-5-3h3 5z" fill="#57718F"/>
<path transform="translate(136,380)" d="m0 0h1v7l4 1 1 9 1 2h-3l-1-6-3-1z" fill="#304962"/>
<path transform="translate(492,315)" d="m0 0h3v2l-12 7-3-2 4-1 1-3z" fill="#294562"/>
<path transform="translate(712,309)" d="m0 0 4 1 1 5-4 2-4-1 1-5z" fill="#42495D"/>
<path transform="translate(615,299)" d="m0 0 6 1 15 9v3l-9-5-12-7z" fill="#3A435C"/>
<path transform="translate(561,238)" d="m0 0 2 3v6l1 2-2 4h-3l1-13z" fill="#244665"/>
<path transform="translate(647,118)" d="m0 0h1v13l-4 1-7-1 3-2h4z" fill="#16182C"/>
<path transform="translate(215,662)" d="m0 0 4 5 5 4 3 1v2h-2v2l-4-2-4-4v-4h-2z" fill="#4A709B"/>
<path transform="translate(432,577)" d="m0 0h8l-2 2-19 5-4-1z" fill="#874E55"/>
<path transform="translate(350,567)" d="m0 0 6 2 5 5 3 5 4 6-4-2-8-10-6-5z" fill="#814D55"/>
<path transform="translate(729,497)" d="m0 0 2 1-3 2zm-5 3 4 1 1 3-6 1h-6v-3z" fill="#152A45"/>
<path transform="translate(493,273)" d="m0 0h5l1 5-5 2h-3l1-6z" fill="#2E4667"/>
<path transform="translate(334,71)" d="m0 0h11l3 2-13 1-1 2-8-2 3-2z" fill="#171F50"/>
<path transform="translate(507,787)" d="m0 0 2 4v4l2 1 1 4-4-2-5-4 2-5z" fill="#305D91"/>
<path transform="translate(603,724)" d="m0 0h8l1 4-3 3-5-1v-2h2l1-1h-5z" fill="#283E5A"/>
<path transform="translate(269,710)" d="m0 0 4 1v3l-6 3h-7v-2l8-4z" fill="#184C87"/>
<path transform="translate(364,550)" d="m0 0 10 3 2 9 2 4-4-2-2-4v-6l-7-1z" fill="#7D4D56"/>
<path transform="translate(721,537)" d="m0 0 1 2h2l-1 8-6 1-2-1v-2h5v-6z" fill="#0E1329"/>
<path transform="translate(337,475)" d="m0 0h3v2l-6 5-9 2-3 1 1-3 12-5z" fill="#975153"/>
<path transform="translate(682,466)" d="m0 0h4l-1 7-1 5-3 1-1-5 1-5z" fill="#2C435B"/>
<path transform="translate(575,764)" d="m0 0 5 2v5l-2 2h-3l-2-6 2-1z" fill="#465670"/>
<path transform="translate(642,659)" d="m0 0 1 2 5-1-3 5-1 6-5-5 2-6z" fill="#6E7F93"/>
<path transform="translate(205,630)" d="m0 0 1 3v5l-5 1-2-4 3-3h3zm-10 7h5l-1 3-4-2z" fill="#154577"/>
<path transform="translate(374,567)" d="m0 0 2 1v2l5 2 8 7 6 7-4-2-9-9-6-3z" fill="#7F4D55"/>
<path transform="translate(703,539)" d="m0 0 1 3h-2v2l4 1 1 3-11-2-1-4h5z" fill="#56708E"/>
<path transform="translate(311,513)" d="m0 0h1v16l2 1-3 3-5-9 1-3 2 4z" fill="#3A415A"/>
<path transform="translate(718,322)" d="m0 0 3 3v6l-8-1z" fill="#55657C"/>
<path transform="translate(575,256)" d="m0 0h13v4l-14-1z" fill="#08071A"/>
<path transform="translate(644,233)" d="m0 0 3 1v8l-4-1-4-5 4-1z" fill="#1E3D5E"/>
<path transform="translate(561,77)" d="m0 0 4 1 1 2-3 4-1 2-2-2-5-1 2-3 3-1z" fill="#1D2161"/>
<path transform="translate(500,780)" d="m0 0 5 2 3 5-4 3-5-9z" fill="#192A44"/>
<path transform="translate(283,700)" d="m0 0h1v8l-4 8-3-4 1-4h3z" fill="#2B4D70"/>
<path transform="translate(239,637)" d="m0 0 5 3 4 4-1 2-7-5 1 6-5-5 3-3z" fill="#375B7F"/>
<path transform="translate(191,633)" d="m0 0 6 2 1-2 4 7-3 2h-3l-5-8zm4 4 2 3h2l1-3z" fill="#336398"/>
<path transform="translate(333,560)" d="m0 0 5 5h-15l4-3z" fill="#FEFEFE"/>
<path transform="translate(460,549)" d="m0 0 4 2-7 3 1 5v3l-3-3-3-7z" fill="#3A435C"/>
<path transform="translate(179,493)" d="m0 0h2l2 11-2 8h-1l-1-13-1-3z" fill="#336399"/>
<path transform="translate(258,266)" d="m0 0 2 2v3l-6 3h-5l3-3 1-3z" fill="#0B0F24"/>
<path transform="translate(691,259)" d="m0 0 4 1 1 6h-6l-1-5z" fill="#36455E"/>
<path transform="translate(211,648)" d="m0 0 2 4 2 9-5-1-1-1-3 2 1-5h3z" fill="#56718F"/>
<path transform="translate(483,456)" d="m0 0h2v15l-4 1-2-5 2 1v2h2z" fill="#C67464"/>
<path transform="translate(709,414)" d="m0 0h1l1 6h2l-1 7h-1v-5h-2v7l-2-1v-9z" fill="#8393A6"/>
<path transform="translate(710,383)" d="m0 0h2v2l-3 1v5h-2v2h2v2l3 1-5-1-2-2v-7z" fill="#5A7799"/>
<path transform="translate(425,296)" d="m0 0 12 2v2l-4 2 3 2h-9l3-1-1-4-4-2z" fill="#2B4C6E"/>
<path transform="translate(400,812)" d="m0 0h2l-2 6-2 3h-3v-4l-2 1 2-5 4 1z" fill="#516785"/>
<path transform="translate(453,809)" d="m0 0h1l1 7 4 2-1 2-4-1-4-6v-2z" fill="#375470"/>
<path transform="translate(670,612)" d="m0 0h6l-1 5 5-1v2h-2l-1 2-6-1v-5z" fill="#1B3652"/>
<path transform="translate(686,602)" d="m0 0 4 1-1 5-2 3h-2l-1-7z" fill="#748092"/>
<path transform="translate(466,245)" d="m0 0 2 1-3 4h5v5l-1-4-1 2-7-1-1-4z" fill="#214361"/>
<path transform="translate(222,239)" d="m0 0 3 1 1 7-3 4-3-8v-3z" fill="#31567C"/>
<path transform="translate(616,236)" d="m0 0 5 1v6l-5 1-2-1 1-4z" fill="#2C3F60"/>
<path transform="translate(311,230)" d="m0 0h4v6l-4-1-1 3-1-2-4-1z" fill="#405C73"/>
<path transform="translate(415,835)" d="m0 0 7 1v3l-1 1h-10l1-2h2z" fill="#1B3753"/>
<path transform="translate(517,802)" d="m0 0 3 3 1 3v9h-1l-1-8-1-3-2 1-2 3-3-7 6 1z" fill="#95A5B5"/>
<path transform="translate(488,780)" d="m0 0h4l1 3h-4l-1 5-4-1-1-3z" fill="#213C58"/>
<path transform="translate(591,723)" d="m0 0 2 3-2 1v5h-2l-1 2-3-3v-3z" fill="#3F6287"/>
<path transform="translate(308,696)" d="m0 0h2l4 6 2 4-2 2-5-5z" fill="#2C415F"/>
<path transform="translate(623,686)" d="m0 0 11 4 1 2-9-1-6 1z" fill="#B6BAC3"/>
<path transform="translate(675,650)" d="m0 0 5 1-3 5-4 1-3-3z" fill="#828B98"/>
<path transform="translate(716,480)" d="m0 0h8l3 3-1 2-2-1h-10l-2 1v-3h4z" fill="#7C8EA3"/>
<path transform="translate(597,293)" d="m0 0 9 1 13 4 2 2-11-2-13-4z" fill="#2D445B"/>
<path transform="translate(468,266)" d="m0 0 2 2 1 8v3l-2 2-2-6v-8z" fill="#1A4369"/>
<path transform="translate(608,260)" d="m0 0 5 3 11 1v2l-6 1-3 1-8-6z" fill="#1D4160"/>
<path transform="translate(794,128)" d="m0 0h4v2l-9 2-9-1v-2z" fill="#0A0B1F"/>
<path transform="translate(598,106)" d="m0 0h1l1 14 3 6v3l-4-2-1-2z" fill="#07063F"/>
<path transform="translate(260,720)" d="m0 0 7 1-3 1v2l3 1h-10l-1-4z" fill="#25486C"/>
<path transform="translate(666,623)" d="m0 0 4 2-2 4h-5v2l-3 1 2-5z" fill="#5D677A"/>
<path transform="translate(197,604)" d="m0 0h4l1 8-4 1-2-4z" fill="#436790"/>
<path transform="translate(590,485)" d="m0 0 1 3-4 6-1 5-4 1 2-6 5-8z" fill="#D15844"/>
<path transform="translate(341,468)" d="m0 0h7l-3 2-6 3-5 2-4 1 5-5z" fill="#1C3E5B"/>
<path transform="translate(731,396)" d="m0 0 4 2v4l-11-1-1-2h8z" fill="#6F8CAD"/>
<path transform="translate(809,81)" d="m0 0 5 5 2 5v3h-2l-1-4h-2l-2-5z" fill="#212143"/>
<path transform="translate(598,72)" d="m0 0h7l-1 4-3 1-1 12h-1z" fill="#07063F"/>
<path transform="translate(419,795)" d="m0 0 2 1-1 3 7-1-4 3h-6l-4 2 3-6z" fill="#506A86"/>
<path transform="translate(264,684)" d="m0 0 8 4 3 3v3l2 1-3 1-3-5-4-3-6-1z" fill="#37679D"/>
<path transform="translate(479,593)" d="m0 0 4 1-3 2-15 4h-6l4-2z" fill="#8E4F54"/>
<path transform="translate(314,537)" d="m0 0 4 2 9 11 2 2-1 3-11-13z" fill="#7B6D79"/>
<path transform="translate(416,509)" d="m0 0 8 6 4 6-1 4-7-10-4-4z" fill="#8E4F54"/>
<path transform="translate(711,461)" d="m0 0 3 1v2l7 1-1 3-5 1-3-2z" fill="#0B1128"/>
<path transform="translate(188,293)" d="m0 0h2v2h2v2h6v2h-2v2h-4l-3-3-2-1z" fill="#2E415E"/>
<path transform="translate(309,256)" d="m0 0h2l-1 5 1 2-3 1v-2l-6 1-1-5 5 2 1-2 2-1z" fill="#2A4161"/>
<path transform="translate(545,93)" d="m0 0h1l1 16 1 7-3-1-1-14z" fill="#32517E"/>
<path transform="translate(163,97)" d="m0 0 3 4v5l-4 2-1-6z" fill="#050653"/>
<path transform="translate(423,834)" d="m0 0h4l-2 5-3 2h-8v-1l7-1 1-2-6-1v-1z" fill="#7A8DA1"/>
<path transform="translate(495,817)" d="m0 0 5 5v3l-1 3-5-2-1-2 2-2-1-4z" fill="#7C8EA1"/>
<path transform="translate(489,809)" d="m0 0h1l2 9 4 5-4 1-3-5z" fill="#242B42"/>
<path transform="translate(233,659)" d="m0 0 3 3 1 5 2 1v5l-5-2v-6l-1-1z" fill="#0F162C"/>
<path transform="translate(389,613)" d="m0 0 10 5 11 1v1l-10 1-5-3h-5z" fill="#7F5B66"/>
<path transform="translate(442,547)" d="m0 0h3l2 3v5l-3 2h-5l1-2 3-1z" fill="#A65352"/>
<path transform="translate(456,507)" d="m0 0 1 2-3 12h-6l1-2h3l1-9z" fill="#734B56"/>
<path transform="translate(673,456)" d="m0 0h1v14l-4 3 1-10z" fill="#33435B"/>
<path transform="translate(429,448)" d="m0 0h13v1h-10v2h-12l2-2z" fill="#485269"/>
<path transform="translate(721,381)" d="m0 0h4l1 4-4 1-7 2-1-4h6z" fill="#426C9A"/>
<path transform="translate(445,265)" d="m0 0 5 1-1 7-4-2-1-4z" fill="#334865"/>
<path transform="translate(647,680)" d="m0 0 10 3-2 2h-6l-5-3z" fill="#94A1B3"/>
<path transform="translate(686,620)" d="m0 0h6v2h3v3l-6-1-6-2z" fill="#193958"/>
<path transform="translate(201,604)" d="m0 0 4 4 2 5-1 3-4-5-2-5z" fill="#181B2E"/>
<path transform="translate(394,586)" d="m0 0 3 3 1 2 1 12-3 1-1-14z" fill="#9A5153"/>
<path transform="translate(424,490)" d="m0 0 4 1 11 3v2h-8l-7-5z" fill="#925054"/>
<path transform="translate(407,461)" d="m0 0 2 1-3 3h-2l-1 8 2 3-4-1-1-1v-6l5-5z" fill="#844E55"/>
<path transform="translate(480,277)" d="m0 0h2v2l4 1 1 2-7 1-4-2z" fill="#244360"/>
<path transform="translate(605,252)" d="m0 0 4 2 2 4-6 1-1-6z" fill="#2F4E6D"/>
<path transform="translate(618,85)" d="m0 0h2l4 6 1 4-5-1-2-7z" fill="#111746"/>
<path transform="translate(502,798)" d="m0 0 5 1-1 2-8 3-3 2 1-5z" fill="#6783A4"/>
<path transform="translate(502,790)" d="m0 0h2l1 6 4 2v3l-3-1-5-3z" fill="#244161"/>
<path transform="translate(466,791)" d="m0 0h5l1 3-4 4-3-1 2-2-4-3z" fill="#5D728C"/>
<path transform="translate(608,723)" d="m0 0h5l1 3-2 2-1-4zm2 5h2l1 2 5 1v2l-9-1z" fill="#5B6B83"/>
<path transform="translate(605,715)" d="m0 0 8 1 2 2v3l-4 1-2-1v-3l-4-2z" fill="#1E2D44"/>
<path transform="translate(647,677)" d="m0 0 5 1v2l6-1 1 4-7-1-5-2z" fill="#0F162D"/>
<path transform="translate(699,606)" d="m0 0 3 1-3 9-3-4 1-5z" fill="#5A6071"/>
<path transform="translate(449,546)" d="m0 0 4 3 6-1 4-2v3l-7 3h-5l-2-2z" fill="#A45352"/>
<path transform="translate(701,534)" d="m0 0h2v6h-2l-1 3-5-1 1-3 4-2z" fill="#243552"/>
<path transform="translate(337,472)" d="m0 0h2v3l-8 5-3-1 4-4z" fill="#050315"/>
<path transform="translate(118,455)" d="m0 0 1 4 4 2 1 3h-6l-2-5h2z" fill="#20273F"/>
<path transform="translate(110,436)" d="m0 0 6 2 2 2h-2l-1 3-4-2-2-4z" fill="#5B697E"/>
<path transform="translate(154,424)" d="m0 0h9v4l-10-1-1-2z" fill="#1D405D"/>
<path transform="translate(481,833)" d="m0 0 1 3-3 4 2 1-4 2-2-1 1-5z" fill="#3D526E"/>
<path transform="translate(412,782)" d="m0 0h4l-1 6-2 4h-2l1-6-2-2z" fill="#546A84"/>
<path transform="translate(559,782)" d="m0 0 1 4-3 3-5-1-1-2z" fill="#485E7C"/>
<path transform="translate(490,779)" d="m0 0h4v2h2v3l-8 4 1-5 3-1-3-2z" fill="#415575"/>
<path transform="translate(550,758)" d="m0 0h5l1 4-5 2h-4v-2l3-1z" fill="#597A9D"/>
<path transform="translate(575,743)" d="m0 0h3v2l6 2-2 4h-2l-5-5z" fill="#193B5E"/>
<path transform="translate(641,702)" d="m0 0 3 2-2 4-5 3-1-2z" fill="#4E5C73"/>
<path transform="translate(249,647)" d="m0 0 3 3 4 12-1 4h-1l-3-12v-3h-2z" fill="#4C6683"/>
<path transform="translate(678,629)" d="m0 0 5 1 1 3h-7l-5 3-2-1 6-5z" fill="#899BAE"/>
<path transform="translate(228,613)" d="m0 0 3 3 2 3-1 4-5 2 2-7z" fill="#587194"/>
<path transform="translate(339,563)" d="m0 0 3 2 1 3 5 3-1 2-9-3-4-2h7z" fill="#A5504B"/>
<path transform="translate(526,538)" d="m0 0 4 2v4h2l3 6-1 2-4-4-4-7z" fill="#1D405D"/>
<path transform="translate(441,532)" d="m0 0 4 4 4 8-1 4-7-13z" fill="#884E55"/>
<path transform="translate(436,450)" d="m0 0 6 1 1 2-11 2h-6l4-2 6-1z" fill="#353E57"/>
<path transform="translate(683,395)" d="m0 0 3 1 1 12-2 1-2-8z" fill="#47607F"/>
<path transform="translate(137,339)" d="m0 0 7 6 4 5-4-1-2-1v-2l-3-1z" fill="#3E5872"/>
<path transform="translate(221,108)" d="m0 0h4l-2 5-4 6-4 1 4-5z" fill="#495C75"/>
<path transform="translate(326,93)" d="m0 0h1l1 18h-2l-1-2v-11z" fill="#080719"/>
<path transform="translate(563,86)" d="m0 0h2v2l7-1v3l-2 2-5-1z" fill="#364A66"/>
<path transform="translate(666,72)" d="m0 0h15l-1 8-3-4-3-2-8-1z" fill="#060640"/>
<path transform="translate(635,685)" d="m0 0 5 1 5 5-4-1-2-1v2h-2v-3l-3-1z" fill="#4F6882"/>
<path transform="translate(216,674)" d="m0 0h6l4 2-1 3-3 1-6-5z" fill="#183453"/>
<path transform="translate(229,670)" d="m0 0h3l-1 3-1 4-2 2-3-3v-2h2v-3z" fill="#194269"/>
<path transform="translate(537,547)" d="m0 0 2 3-3 12h-1l-1-13z" fill="#4E77A4"/>
<path transform="translate(114,452)" d="m0 0 3 1 1 6h-2l2 4-3-1-1-2z" fill="#6B798E"/>
<path transform="translate(709,389)" d="m0 0 1 3 4-1 2 3-1 2-6-1v-2h-2v-2h2z" fill="#050417"/>
<path transform="translate(480,326)" d="m0 0h3l-1 24h-1z" fill="#B95550"/>
<path transform="translate(586,236)" d="m0 0 3 1 1 6h-5l1-4h-3v-2z" fill="#496787"/>
<path transform="translate(543,125)" d="m0 0h5l3 4-5 1-5-3z" fill="#090B3F"/>
<path transform="translate(435,830)" d="m0 0v3l-7 6-4 1 5-6z" fill="#275B95"/>
<path transform="translate(448,800)" d="m0 0h4v2h-2l1 8-2 1-2-5v-5z" fill="#293851"/>
<path transform="translate(560,769)" d="m0 0 3 1 5 3v5l-3-1-1-3-4-2z" fill="#16253F"/>
<path transform="translate(599,739)" d="m0 0 8 1 1 5-7-2v-2h-2z" fill="#28334B"/>
<path transform="translate(615,724)" d="m0 0 3 3v4h-5l-1-3z" fill="#223A55"/>
<path transform="translate(631,686)" d="m0 0 4 1 2 1v3l4 2-6-1-5-3z" fill="#0C1026"/>
<path transform="translate(569,504)" d="m0 0h2l-1 10-3-3-2-1 2-4z" fill="#4E5F7E"/>
<path transform="translate(423,454)" d="m0 0 3 1-1 2-13 4-3-1 13-5z" fill="#734B56"/>
<path transform="translate(129,334)" d="m0 0 6 3 3 5h-3l-1-2-2 3-1-3 1-2-3-1z" fill="#26435B"/>
<path transform="translate(690,299)" d="m0 0 4 2v3l4 1-8 2 1-2-3-3z" fill="#516884"/>
<path transform="translate(584,754)" d="m0 0 14 1-2 2h-8l-4 2-1-4z" fill="#8297AE"/>
<path transform="translate(727,431)" d="m0 0h4v4l-2 1h-7v-2h3v-2z" fill="#111225"/>
<path transform="translate(719,378)" d="m0 0h2v2l5-1 1 3h-6l-1 2-6-1 4-1z" fill="#132039"/>
<path transform="translate(214,293)" d="m0 0 1 3-1 4-4 2v-2l-2-1h2l2-5z" fill="#1C3C59"/>
<path transform="translate(404,830)" d="m0 0 6 2-3 2-1 1-1 2-3-1v-5z" fill="#8E9AAC"/>
<path transform="translate(392,823)" d="m0 0 3 2-2 5h-4l-1-4 1 2h2z" fill="#4F6C8D"/>
<path transform="translate(498,823)" d="m0 0 5 1 3 3-2 2-5-1z" fill="#25293C"/>
<path transform="translate(603,710)" d="m0 0 4 1 5 5-7-1v-2l-4-2z" fill="#8C9EB2"/>
<path transform="translate(224,653)" d="m0 0 4 1-1 5 1 7-2-3-2-5z" fill="#435E7D"/>
<path transform="translate(677,597)" d="m0 0 3 1-1 7-2 4h-2z" fill="#7088A6"/>
<path transform="translate(450,577)" d="m0 0h3v2l-14 4-3-1z" fill="#985153"/>
<path transform="translate(328,476)" d="m0 0 2 1-1 4-5 1h-3l-2-1z" fill="#24405C"/>
<path transform="translate(382,469)" d="m0 0h5l6 5-3 1-2-2-9-2z" fill="#B85651"/>
<path transform="translate(140,463)" d="m0 0 5 1v2l-10 3-2 1v-3z" fill="#27445B"/>
<path transform="translate(709,422)" d="m0 0h2l2 6 2 3h-7z" fill="#3C4961"/>
<path transform="translate(331,116)" d="m0 0 5 3 5 1-4 3-4-2-3-2z" fill="#323242"/>
<path transform="translate(542,74)" d="m0 0 2 1-10 10-2-1 7-8z" fill="#5C6786"/>
<path transform="translate(252,72)" d="m0 0h2l1 2v7l-3 2z" fill="#08071A"/>
<path transform="translate(313,730)" d="m0 0 3 3-1 4-4-1v-5z" fill="#181A30"/>
<path transform="translate(683,622)" d="m0 0 6 1 5 2v2l-7-1-4-2z" fill="#577595"/>
<path transform="translate(458,448)" d="m0 0 7 1v2l-5 2h-3z" fill="#26334A"/>
<path transform="translate(415,291)" d="m0 0h2v3l3 1-2 4 1 2-4-2v-3l2 1v-2h-2z" fill="#184F8E"/>
<path transform="translate(198,268)" d="m0 0h8l3 3v3l-4-2-7-3z" fill="#3D5973"/>
<path transform="translate(370,247)" d="m0 0 1 3-8 8-3-1z" fill="#1E4E85"/>
<path transform="translate(105,75)" d="m0 0 2 1-4 5-2 4-2-2 2-6z" fill="#110F23"/>
<path transform="translate(436,818)" d="m0 0 3 2v5l-4 1-1-4z" fill="#28435D"/>
<path transform="translate(412,815)" d="m0 0h4l2 2 2-2 1 3-4 1v2l-3-1z" fill="#8D98A8"/>
<path transform="translate(581,756)" d="m0 0h3l-1 4-2 1-2 3-3-1v-3h4z" fill="#273C57"/>
<path transform="translate(598,742)" d="m0 0 4 1 6 2-2 3-5-2z" fill="#607694"/>
<path transform="translate(676,598)" d="m0 0 2 1-2 8-2 3-2-1 2-4 1-6z" fill="#23273F"/>
<path transform="translate(378,594)" d="m0 0 5 1 5 6-1 2-5-5z" fill="#915054"/>
<path transform="translate(345,538)" d="m0 0 4 1 7 8v3h-2l-2-5-7-6z" fill="#824D55"/>
<path transform="translate(709,529)" d="m0 0 2 1v9l-3-1v-7z" fill="#141E36"/>
<path transform="translate(411,492)" d="m0 0 5 2 4 6v6h-1l-2-7-5-5z" fill="#874E55"/>
<path transform="translate(487,481)" d="m0 0 7 6 1 5h-2l-2-5h-2z" fill="#6D4A56"/>
<path transform="translate(714,330)" d="m0 0 7 1-1 2h-4v2l-5-1z" fill="#1E3E61"/>
<path transform="translate(327,271)" d="m0 0h4l-1 4-4 1-3-3z" fill="#33405B"/>
<path transform="translate(698,87)" d="m0 0h2v6l-4 4 1-9z" fill="#06063F"/>
</svg>
